 <svg width="20" height="20" viewBox="0 0 20 20" fill="none" xmlns="http://www.w3.org/2000/svg">
<path d="M16.3993 3.60068C14.6901 1.89144 12.4172 0.95 10 0.95C7.58279 0.95 5.30991 1.89144 3.60068 3.60068C1.89144 5.30991 0.95 7.58279 0.95 10C0.95 12.4172 1.89144 14.6901 3.60068 16.3993C5.30991 18.1086 7.58279 19.05 10 19.05C12.4172 19.05 14.6901 18.1086 16.3993 16.3993C18.1086 14.6901 19.05 12.4172 19.05 10C19.05 7.58279 18.1086 5.30991 16.3993 3.60068ZM4.9589 16.0715C5.26535 13.5525 7.43627 11.6112 10 11.6112C11.3565 11.6112 12.6317 12.1395 13.5912 13.0989C14.3954 13.9031 14.9048 14.9513 15.0412 16.0713C13.6727 17.2096 11.915 17.8953 10 17.8953C8.08502 17.8953 6.32747 17.2098 4.9589 16.0715ZM10 10.4249C8.52043 10.4249 7.31646 9.22092 7.31646 7.74135C7.31646 6.26164 8.52043 5.05781 10 5.05781C11.4796 5.05781 12.6835 6.26164 12.6835 7.74135C12.6835 9.22092 11.4796 10.4249 10 10.4249ZM3.97284 15.0944C2.80792 13.7183 2.10469 11.9398 2.10469 10C2.10469 5.64654 5.64654 2.10469 10 2.10469C14.3535 2.10469 17.8953 5.64654 17.8953 10C17.8953 11.9403 17.1918 13.7192 16.0264 15.0953C15.7469 14.039 15.1914 13.0662 14.4076 12.2825C13.7776 11.6524 13.0361 11.174 12.2278 10.8651C13.2019 10.1685 13.8382 9.02784 13.8382 7.74135C13.8382 5.62496 12.1164 3.90313 10 3.90313C7.88361 3.90313 6.16178 5.62496 6.16178 7.74135C6.16178 9.02851 6.79863 10.1696 7.77357 10.8661C7.03222 11.1494 6.3459 11.5747 5.75226 12.1277C4.882 12.9382 4.27045 13.9657 3.97284 15.0944Z" fill="#D4D4D4" stroke="#D4D4D4" stroke-width="0.1"/>
</svg>
