<svg width="16" height="19" viewBox="0 0 16 19" fill="none" xmlns="http://www.w3.org/2000/svg">
<path d="M10.5288 3.0303C10.8879 2.61639 11.1618 2.13562 11.3346 1.61559C11.5074 1.09556 11.5757 0.546525 11.5358 0C10.4332 0.0889967 9.4098 0.607538 8.68595 1.4439C8.33931 1.84475 8.07664 2.31108 7.91347 2.81527C7.7503 3.31947 7.68995 3.85128 7.73601 4.37921C8.27381 4.38369 8.80543 4.26436 9.28973 4.03045C9.77402 3.79654 10.198 3.45433 10.5288 3.0303ZM12.9227 10.0978C12.929 9.36993 13.1208 8.65565 13.4798 8.02241C13.8388 7.38917 14.3532 6.85784 14.9745 6.47857C14.5824 5.91358 14.0641 5.44773 13.4606 5.11795C12.8571 4.78817 12.185 4.60354 11.4978 4.5787C10.0159 4.42671 8.64795 5.44314 7.8595 5.44314C7.07105 5.44314 5.95963 4.59769 4.72471 4.61669C3.91739 4.64329 3.13074 4.87867 2.44149 5.29987C1.75224 5.72108 1.18392 6.31374 0.791972 7.02003C-0.879917 9.92684 0.364501 14.2491 2.03639 16.5954C2.79634 17.7448 3.74628 19.0462 5.00019 18.9987C6.25411 18.9512 6.66258 18.2198 8.11598 18.2198C9.56939 18.2198 10.0159 18.9987 11.2508 18.9702C12.4857 18.9417 13.3596 17.7923 14.1576 16.6429C14.7228 15.8084 15.1644 14.8965 15.4685 13.9356C14.7156 13.6145 14.0733 13.0799 13.6209 12.3979C13.1685 11.7159 12.9257 10.9163 12.9227 10.0978Z" fill="black"/>
</svg>
