<svg width="18" height="18" viewBox="0 0 18 18" fill="none" xmlns="http://www.w3.org/2000/svg">
<path fill-rule="evenodd" clip-rule="evenodd" d="M8.9998 16.2008C12.9763 16.2008 16.1998 12.9772 16.1998 9.00078C16.1998 5.02433 12.9763 1.80078 8.9998 1.80078C5.02335 1.80078 1.7998 5.02433 1.7998 9.00078C1.7998 12.9772 5.02335 16.2008 8.9998 16.2008ZM12.3362 8.36438L9.6362 5.66438C9.28473 5.31291 8.71488 5.31291 8.36341 5.66438L5.66341 8.36438C5.31194 8.71586 5.31194 9.28571 5.66341 9.63718C6.01488 9.98865 6.58473 9.98865 6.9362 9.63718L8.0998 8.47357L8.0998 11.7008C8.0998 12.1978 8.50275 12.6008 8.9998 12.6008C9.49686 12.6008 9.8998 12.1978 9.8998 11.7008V8.47357L11.0634 9.63718C11.4149 9.98865 11.9847 9.98865 12.3362 9.63718C12.6877 9.2857 12.6877 8.71586 12.3362 8.36438Z" fill="#666666"/>
</svg>
