<svg width="32" height="32" viewBox="0 0 32 32" fill="none" xmlns="http://www.w3.org/2000/svg">
<g opacity="0.2">
<circle cx="16" cy="16" r="16" fill="white"/>
<circle cx="16" cy="16" r="16" fill="#27AE60"/>
</g>
<path fill-rule="evenodd" clip-rule="evenodd" d="M16 24C20.4183 24 24 20.4183 24 16C24 11.5817 20.4183 8 16 8C11.5817 8 8 11.5817 8 16C8 20.4183 11.5817 24 16 24ZM19.7071 15.2929L16.7071 12.2929C16.3166 11.9024 15.6834 11.9024 15.2929 12.2929L12.2929 15.2929C11.9024 15.6834 11.9024 16.3166 12.2929 16.7071C12.6834 17.0976 13.3166 17.0976 13.7071 16.7071L15 15.4142L15 19C15 19.5523 15.4477 20 16 20C16.5523 20 17 19.5523 17 19V15.4142L18.2929 16.7071C18.6834 17.0976 19.3166 17.0976 19.7071 16.7071C20.0976 16.3166 20.0976 15.6834 19.7071 15.2929Z" fill="#27AE60"/>
</svg>
