<svg width="18" height="18" viewBox="0 0 18 18" fill="none" xmlns="http://www.w3.org/2000/svg">
<path fill-rule="evenodd" clip-rule="evenodd" d="M5.3998 5.40078V4.50078C5.3998 3.00961 6.60864 1.80078 8.0998 1.80078H9.8998C11.391 1.80078 12.5998 3.00961 12.5998 4.50078V5.40078H14.3998C15.3939 5.40078 16.1998 6.20667 16.1998 7.20078V10.4145C13.9585 11.246 11.5332 11.7007 8.99983 11.7007C6.46643 11.7007 4.04113 11.246 1.7998 10.4145V7.20078C1.7998 6.20667 2.60569 5.40078 3.5998 5.40078H5.3998ZM7.1998 4.50078C7.1998 4.00372 7.60275 3.60078 8.0998 3.60078H9.8998C10.3969 3.60078 10.7998 4.00372 10.7998 4.50078V5.40078H7.1998V4.50078ZM8.0998 9.00078C8.0998 8.50372 8.50275 8.10078 8.9998 8.10078H9.0088C9.50586 8.10078 9.9088 8.50372 9.9088 9.00078C9.9088 9.49784 9.50586 9.90078 9.0088 9.90078H8.9998C8.50275 9.90078 8.0998 9.49784 8.0998 9.00078Z" fill="#999999"/>
<path d="M1.7998 12.3238V14.4008C1.7998 15.3949 2.60569 16.2008 3.5998 16.2008H14.3998C15.3939 16.2008 16.1998 15.3949 16.1998 14.4008V12.3238C13.9383 13.0872 11.5166 13.5007 8.99983 13.5007C6.48307 13.5007 4.06132 13.0872 1.7998 12.3238Z" fill="#999999"/>
</svg>
