<svg width="20" height="20" viewBox="0 0 20 20" fill="none" xmlns="http://www.w3.org/2000/svg">
<path d="M16.8421 11.7143C14.6682 12.5933 12.3449 13.0438 10 13.0409C7.58018 13.0409 5.27134 12.5696 3.15789 11.7143M10 10.7602H10.0076M13.0409 6.19883V4.67837C13.0409 4.27511 12.8807 3.88838 12.5956 3.60323C12.3105 3.31809 11.9237 3.1579 11.5205 3.1579H8.47953C8.07628 3.1579 7.68954 3.31809 7.4044 3.60323C7.11926 3.88838 6.95906 4.27511 6.95906 4.67837V6.19883H13.0409ZM4.67836 16.8421H15.3216C15.7249 16.8421 16.1116 16.6819 16.3968 16.3968C16.6819 16.1116 16.8421 15.7249 16.8421 15.3216V7.7193C16.8421 7.31605 16.6819 6.92931 16.3968 6.64417C16.1116 6.35903 15.7249 6.19883 15.3216 6.19883H4.67836C4.27511 6.19883 3.88837 6.35903 3.60323 6.64417C3.31809 6.92931 3.15789 7.31605 3.15789 7.7193V15.3216C3.15789 15.7249 3.31809 16.1116 3.60323 16.3968C3.88837 16.6819 4.27511 16.8421 4.67836 16.8421Z" stroke="#999999" stroke-width="1.5" stroke-linecap="round" stroke-linejoin="round"/>
</svg>
