<svg width="12" height="14" viewBox="0 0 12 14" fill="none" xmlns="http://www.w3.org/2000/svg">
<path fill-rule="evenodd" clip-rule="evenodd" d="M4.13836 1.41895C4.13836 1.1428 3.9145 0.918945 3.63836 0.918945C3.36221 0.918945 3.13836 1.1428 3.13836 1.41895V2.03522H2.84766L2.81474 2.03522C2.3715 2.0352 1.98959 2.03518 1.68376 2.07629C1.356 2.12036 1.04183 2.21973 0.786998 2.47456C0.532167 2.7294 0.432794 3.04357 0.388728 3.37133C0.347611 3.67716 0.347632 4.05907 0.347658 4.50231V4.53523V6.07011V10.5817V10.6147C0.347632 11.0579 0.347611 11.4398 0.388728 11.7456C0.432794 12.0734 0.532167 12.3876 0.786998 12.6424C1.04183 12.8972 1.356 12.9966 1.68376 13.0407C1.9896 13.0818 2.37151 13.0818 2.81476 13.0817L2.84766 13.0817H8.89417L8.92707 13.0817C9.37032 13.0818 9.75223 13.0818 10.0581 13.0407C10.3858 12.9966 10.7 12.8972 10.9548 12.6424C11.2097 12.3876 11.309 12.0734 11.3531 11.7456C11.3942 11.4398 11.3942 11.0579 11.3942 10.6146L11.3942 10.5817V4.53522L11.3942 4.50232C11.3942 4.05907 11.3942 3.67716 11.3531 3.37133C11.309 3.04357 11.2097 2.7294 10.9548 2.47456C10.7 2.21973 10.3858 2.12036 10.0581 2.07629C9.75224 2.03518 9.37033 2.0352 8.92709 2.03522L8.89417 2.03522H8.60347V1.41895C8.60347 1.1428 8.37961 0.918945 8.10347 0.918945C7.82733 0.918945 7.60347 1.1428 7.60347 1.41895V2.03522H4.13836V1.41895ZM7.60347 3.09336V3.03522H4.13836V3.09336C4.13836 3.36951 3.9145 3.59336 3.63836 3.59336C3.36221 3.59336 3.13836 3.36951 3.13836 3.09336V3.03522H2.84766C2.36212 3.03522 2.04826 3.03629 1.81701 3.06738C1.60014 3.09653 1.53217 3.14361 1.4941 3.18167C1.45604 3.21973 1.40897 3.28771 1.37981 3.50458C1.34872 3.73583 1.34766 4.04969 1.34766 4.53523V6.07011V10.5817C1.34766 11.0673 1.34872 11.3811 1.37981 11.6124C1.40897 11.8293 1.45604 11.8972 1.4941 11.9353C1.53217 11.9734 1.60014 12.0204 1.81701 12.0496C2.04826 12.0807 2.36212 12.0817 2.84766 12.0817H8.89417C9.37971 12.0817 9.69357 12.0807 9.92482 12.0496C10.1417 12.0204 10.2097 11.9734 10.2477 11.9353C10.2858 11.8972 10.3329 11.8293 10.362 11.6124C10.3931 11.3811 10.3942 11.0673 10.3942 10.5817V4.53522C10.3942 4.04969 10.3931 3.73583 10.362 3.50458C10.3329 3.28771 10.2858 3.21973 10.2477 3.18167C10.2097 3.14361 10.1417 3.09653 9.92482 3.06738C9.69356 3.03629 9.37971 3.03522 8.89417 3.03522H8.60347V3.09336C8.60347 3.36951 8.37961 3.59336 8.10347 3.59336C7.82733 3.59336 7.60347 3.36951 7.60347 3.09336ZM3.08022 4.82592C2.80407 4.82592 2.58022 5.04978 2.58022 5.32592C2.58022 5.60206 2.80407 5.82592 3.08022 5.82592H8.66161C8.93775 5.82592 9.16161 5.60206 9.16161 5.32592C9.16161 5.04978 8.93775 4.82592 8.66161 4.82592H3.08022Z" fill="#666666"/>
</svg>
