<svg width="20" height="16" viewBox="0 0 20 16" fill="none" xmlns="http://www.w3.org/2000/svg">
<path d="M18.4016 13.018C18.4016 13.423 18.2407 13.8115 17.9542 14.0979C17.6678 14.3843 17.2793 14.5453 16.8743 14.5453H3.12884C2.72378 14.5453 2.33531 14.3843 2.04889 14.0979C1.76247 13.8115 1.60156 13.423 1.60156 13.018V4.61799C1.60156 4.21293 1.76247 3.82446 2.04889 3.53804C2.33531 3.25162 2.72378 3.09071 3.12884 3.09071H6.18338L7.71065 0.799805H12.2925L13.8197 3.09071H16.8743C17.2793 3.09071 17.6678 3.25162 17.9542 3.53804C18.2407 3.82446 18.4016 4.21293 18.4016 4.61799V13.018Z" stroke="#666666" stroke-width="1.5" stroke-linecap="round" stroke-linejoin="round"/>
<path d="M9.99986 11.489C11.6868 11.489 13.0544 10.1214 13.0544 8.43443C13.0544 6.74745 11.6868 5.37988 9.99986 5.37988C8.31288 5.37988 6.94531 6.74745 6.94531 8.43443C6.94531 10.1214 8.31288 11.489 9.99986 11.489Z" stroke="#666666" stroke-width="1.5" stroke-linecap="round" stroke-linejoin="round"/>
</svg>
