<svg width="24" height="24" viewBox="0 0 24 24" fill="none" xmlns="http://www.w3.org/2000/svg">
<path fill-rule="evenodd" clip-rule="evenodd" d="M4.80039 11.9999C4.80039 8.02345 8.02394 4.7999 12.0004 4.7999C15.9768 4.7999 19.2004 8.02345 19.2004 11.9999C19.2004 15.9764 15.9768 19.1999 12.0004 19.1999C8.02394 19.1999 4.80039 15.9764 4.80039 11.9999ZM12.0004 2.3999C6.69846 2.3999 2.40039 6.69797 2.40039 11.9999C2.40039 17.3018 6.69846 21.5999 12.0004 21.5999C17.3023 21.5999 21.6004 17.3018 21.6004 11.9999C21.6004 6.69797 17.3023 2.3999 12.0004 2.3999ZM11.1022 10.3012C11.4895 9.76332 11.3674 9.01339 10.8296 8.62615C10.2917 8.23891 9.54179 8.36099 9.15455 8.89883L7.42655 11.2988C7.125 11.7176 7.125 12.2823 7.42655 12.7012L9.15455 15.1012C9.54179 15.639 10.2917 15.7611 10.8296 15.3738C11.3674 14.9866 11.4895 14.2367 11.1022 13.6988L9.87907 12L11.1022 10.3012ZM14.8462 8.89883C14.459 8.36099 13.7091 8.23891 13.1712 8.62615C12.6334 9.01339 12.5113 9.76332 12.8986 10.3012L14.1217 12L12.8986 13.6988C12.5113 14.2367 12.6334 14.9866 13.1712 15.3738C13.7091 15.7611 14.459 15.639 14.8462 15.1012L16.5742 12.7012C16.8758 12.2823 16.8758 11.7176 16.5742 11.2988L14.8462 8.89883Z" fill="#D4D4D4"/>
<path d="M11.1022 10.3012L11.508 10.5933L11.1022 10.3012ZM9.15455 8.89883L8.74878 8.60667L9.15455 8.89883ZM7.42655 11.2988L7.02078 11.0067H7.02078L7.42655 11.2988ZM7.42655 12.7012L7.02078 12.9933L7.02078 12.9933L7.42655 12.7012ZM9.15455 15.1012L9.56032 14.809L9.56032 14.809L9.15455 15.1012ZM10.8296 15.3738L10.5374 14.9681V14.9681L10.8296 15.3738ZM11.1022 13.6988L11.508 13.4067L11.1022 13.6988ZM9.87907 12L9.4733 11.7078C9.34766 11.8823 9.34766 12.1176 9.4733 12.2921L9.87907 12ZM13.1712 8.62615L13.4634 9.03192L13.4634 9.03192L13.1712 8.62615ZM14.8462 8.89883L15.252 8.60667L14.8462 8.89883ZM12.8986 10.3012L13.3043 10.009V10.009L12.8986 10.3012ZM14.1217 12L14.5275 12.2921C14.6531 12.1176 14.6531 11.8823 14.5275 11.7078L14.1217 12ZM12.8986 13.6988L13.3043 13.991L12.8986 13.6988ZM13.1712 15.3738L13.4634 14.9681L13.4634 14.9681L13.1712 15.3738ZM14.8462 15.1012L15.252 15.3933L14.8462 15.1012ZM16.5742 12.7012L16.1685 12.409V12.409L16.5742 12.7012ZM16.5742 11.2988L16.1685 11.591V11.591L16.5742 11.2988ZM12.0004 4.2999C7.7478 4.2999 4.30039 7.74731 4.30039 11.9999H5.30039C5.30039 8.29959 8.30008 5.2999 12.0004 5.2999V4.2999ZM19.7004 11.9999C19.7004 7.74731 16.253 4.2999 12.0004 4.2999V5.2999C15.7007 5.2999 18.7004 8.29959 18.7004 11.9999H19.7004ZM12.0004 19.6999C16.253 19.6999 19.7004 16.2525 19.7004 11.9999H18.7004C18.7004 15.7002 15.7007 18.6999 12.0004 18.6999V19.6999ZM4.30039 11.9999C4.30039 16.2525 7.7478 19.6999 12.0004 19.6999V18.6999C8.30008 18.6999 5.30039 15.7002 5.30039 11.9999H4.30039ZM2.90039 11.9999C2.90039 6.97411 6.9746 2.8999 12.0004 2.8999V1.8999C6.42232 1.8999 1.90039 6.42183 1.90039 11.9999H2.90039ZM12.0004 21.0999C6.9746 21.0999 2.90039 17.0257 2.90039 11.9999H1.90039C1.90039 17.578 6.42232 22.0999 12.0004 22.0999V21.0999ZM21.1004 11.9999C21.1004 17.0257 17.0262 21.0999 12.0004 21.0999V22.0999C17.5785 22.0999 22.1004 17.578 22.1004 11.9999H21.1004ZM12.0004 2.8999C17.0262 2.8999 21.1004 6.97411 21.1004 11.9999H22.1004C22.1004 6.42183 17.5785 1.8999 12.0004 1.8999V2.8999ZM10.5374 9.03192C10.8511 9.25781 10.9224 9.69527 10.6965 10.009L11.508 10.5933C12.0566 9.83137 11.8836 8.76898 11.1217 8.22038L10.5374 9.03192ZM9.56032 9.19098C9.78621 8.87724 10.2237 8.80603 10.5374 9.03192L11.1217 8.22038C10.3598 7.67179 9.29738 7.84474 8.74878 8.60667L9.56032 9.19098ZM7.83232 11.591L9.56032 9.19098L8.74878 8.60667L7.02078 11.0067L7.83232 11.591ZM7.83232 12.409C7.65641 12.1647 7.65641 11.8353 7.83232 11.591L7.02078 11.0067C6.59359 11.6 6.59359 12.4 7.02078 12.9933L7.83232 12.409ZM9.56032 14.809L7.83232 12.409L7.02078 12.9933L8.74878 15.3933L9.56032 14.809ZM10.5374 14.9681C10.2237 15.194 9.78621 15.1227 9.56032 14.809L8.74878 15.3933C9.29738 16.1552 10.3598 16.3282 11.1217 15.7796L10.5374 14.9681ZM10.6965 13.991C10.9224 14.3047 10.8511 14.7422 10.5374 14.9681L11.1217 15.7796C11.8836 15.231 12.0566 14.1686 11.508 13.4067L10.6965 13.991ZM9.4733 12.2921L10.6965 13.991L11.508 13.4067L10.2848 11.7078L9.4733 12.2921ZM10.6965 10.009L9.4733 11.7078L10.2848 12.2921L11.508 10.5933L10.6965 10.009ZM13.4634 9.03192C13.7771 8.80603 14.2146 8.87724 14.4405 9.19098L15.252 8.60667C14.7034 7.84474 13.641 7.67179 12.8791 8.22038L13.4634 9.03192ZM13.3043 10.009C13.0784 9.69527 13.1496 9.25781 13.4634 9.03192L12.8791 8.22038C12.1171 8.76898 11.9442 9.83137 12.4928 10.5933L13.3043 10.009ZM14.5275 11.7078L13.3043 10.009L12.4928 10.5933L13.7159 12.2921L14.5275 11.7078ZM13.3043 13.991L14.5275 12.2921L13.7159 11.7078L12.4928 13.4067L13.3043 13.991ZM13.4634 14.9681C13.1496 14.7422 13.0784 14.3047 13.3043 13.991L12.4928 13.4067C11.9442 14.1686 12.1171 15.231 12.8791 15.7796L13.4634 14.9681ZM14.4405 14.809C14.2146 15.1227 13.7771 15.194 13.4634 14.9681L12.8791 15.7796C13.641 16.3282 14.7034 16.1552 15.252 15.3933L14.4405 14.809ZM16.1685 12.409L14.4405 14.809L15.252 15.3933L16.98 12.9933L16.1685 12.409ZM16.1685 11.591C16.3444 11.8353 16.3444 12.1647 16.1685 12.409L16.98 12.9933C17.4072 12.4 17.4072 11.6 16.98 11.0067L16.1685 11.591ZM14.4405 9.19098L16.1685 11.591L16.98 11.0067L15.252 8.60667L14.4405 9.19098Z" fill="#101011"/>
</svg>
