<svg width="18" height="18" viewBox="0 0 18 18" fill="none" xmlns="http://www.w3.org/2000/svg">
<path fill-rule="evenodd" clip-rule="evenodd" d="M11.2498 2.15835C10.5419 1.92567 9.78556 1.7998 8.9998 1.7998C5.02335 1.7998 1.7998 5.02335 1.7998 8.9998C1.7998 12.9763 5.02335 16.1998 8.9998 16.1998C12.9763 16.1998 16.1998 12.9763 16.1998 8.9998C16.1998 8.21405 16.0739 7.4577 15.8413 6.7498H15.7498V7.1998C15.7498 8.12493 15.1915 8.91965 14.3934 9.26538C14.2549 12.1244 11.8931 14.3998 8.9998 14.3998C6.01747 14.3998 3.5998 11.9821 3.5998 8.9998C3.5998 6.10651 5.87525 3.74468 8.73423 3.60622C9.07996 2.80814 9.87468 2.2498 10.7998 2.2498H11.2498V2.15835ZM9.81185 6.52186C9.46534 6.82368 9.39959 7.34542 9.67342 7.72575L10.5908 8.99987L9.67342 10.274C9.38299 10.6774 9.47455 11.2398 9.87793 11.5303C10.2813 11.8207 10.8438 11.7291 11.1342 11.3257L12.4302 9.52575C12.4922 9.4396 12.5372 9.34522 12.5652 9.24713C11.7891 8.89225 11.2498 8.10901 11.2498 7.1998V6.83458L11.1888 6.7498H10.7998C10.4454 6.7498 10.1101 6.66785 9.81185 6.52186ZM8.12168 6.46949C8.52506 6.75992 8.61662 7.32237 8.32619 7.72575L7.40882 8.99987L8.32619 10.274C8.61662 10.6774 8.52506 11.2398 8.12168 11.5303C7.7183 11.8207 7.15586 11.7291 6.86542 11.3257L5.56942 9.52575C5.34327 9.21164 5.34327 8.78811 5.56942 8.474L6.86542 6.674C7.15586 6.27062 7.7183 6.17906 8.12168 6.46949Z" fill="#999999"/>
<path fill-rule="evenodd" clip-rule="evenodd" d="M13.4999 0.900391C13.997 0.900391 14.3999 1.30333 14.3999 1.80039V3.60039L16.1999 3.60039C16.697 3.60039 17.0999 4.00333 17.0999 4.50039C17.0999 4.99745 16.697 5.40039 16.1999 5.40039H14.3999V7.20039C14.3999 7.69745 13.997 8.10039 13.4999 8.10039C13.0028 8.10039 12.5999 7.69745 12.5999 7.20039V5.40039H10.7999C10.3028 5.40039 9.8999 4.99745 9.8999 4.50039C9.8999 4.00333 10.3028 3.60039 10.7999 3.60039L12.5999 3.60039V1.80039C12.5999 1.30333 13.0028 0.900391 13.4999 0.900391Z" fill="#999999"/>
</svg>
