<svg width="32" height="32" viewBox="0 0 32 32" fill="none" xmlns="http://www.w3.org/2000/svg">
<g opacity="0.2">
<circle cx="16" cy="16" r="16" fill="white"/>
<circle cx="16" cy="16" r="16" fill="#4595D0"/>
</g>
<path fill-rule="evenodd" clip-rule="evenodd" d="M10 16C10 12.6863 12.6863 10 16 10C19.3137 10 22 12.6863 22 16C22 19.3137 19.3137 22 16 22C12.6863 22 10 19.3137 10 16ZM16 8C11.5817 8 8 11.5817 8 16C8 20.4183 11.5817 24 16 24C20.4183 24 24 20.4183 24 16C24 11.5817 20.4183 8 16 8ZM15.2515 14.5844C15.5742 14.1362 15.4725 13.5112 15.0243 13.1885C14.5761 12.8658 13.9512 12.9676 13.6285 13.4158L12.1885 15.4158C11.9372 15.7648 11.9372 16.2354 12.1885 16.5844L13.6285 18.5844C13.9512 19.0326 14.5761 19.1343 15.0243 18.8116C15.4725 18.4889 15.5742 17.864 15.2515 17.4158L14.2322 16.0001L15.2515 14.5844ZM18.3715 13.4158C18.0488 12.9676 17.4239 12.8658 16.9757 13.1885C16.5275 13.5112 16.4258 14.1362 16.7485 14.5844L17.7678 16.0001L16.7485 17.4158C16.4258 17.864 16.5275 18.4889 16.9757 18.8116C17.4239 19.1343 18.0488 19.0326 18.3715 18.5844L19.8115 16.5844C20.0628 16.2354 20.0628 15.7648 19.8115 15.4158L18.3715 13.4158Z" fill="#4595D0"/>
</svg>
