<svg width="18" height="18" viewBox="0 0 18 18" fill="none" xmlns="http://www.w3.org/2000/svg"><path fill-rule="evenodd" clip-rule="evenodd" d="M16.387 2.886a.9.9 0 0 0-1.273-1.272l-2.963 2.963-1.164-1.163a.9.9 0 0 0-1.273 1.272l1.8 1.8a.9.9 0 0 0 1.273 0l3.6-3.6ZM9.001 1.8c.26 0 .516.014.768.04a2.65 2.65 0 0 0-1.01.62 2.24 2.24 0 0 0-.626 1.21 5.401 5.401 0 0 0 .868 10.73 5.4 5.4 0 0 0 5.063-7.281l1.365-1.365A7.2 7.2 0 1 1 9.001 1.8Zm.673 5.926a.9.9 0 0 1 .053-1.118l.833.833a2.243 2.243 0 0 0 1.602.66l.27.373a.9.9 0 0 1 0 1.052l-1.297 1.8a.9.9 0 1 1-1.46-1.052L10.591 9l-.918-1.274Zm-1.347 0a.9.9 0 0 0-1.46-1.052l-1.297 1.8a.9.9 0 0 0 0 1.052l1.296 1.8a.9.9 0 1 0 1.461-1.052L7.41 9l.917-1.274Z" fill="#4595D0"></path></svg>