<svg width="18" height="18" viewBox="0 0 18 18" fill="none" xmlns="http://www.w3.org/2000/svg">
<path d="M6.2998 2.69922C5.80275 2.69922 5.3998 3.10216 5.3998 3.59922C5.3998 4.09628 5.80275 4.49922 6.2998 4.49922H11.6998C12.1969 4.49922 12.5998 4.09628 12.5998 3.59922C12.5998 3.10216 12.1969 2.69922 11.6998 2.69922H6.2998Z" fill="#999999"/>
<path d="M3.5998 6.29922C3.5998 5.80216 4.00275 5.39922 4.4998 5.39922H13.4998C13.9969 5.39922 14.3998 5.80216 14.3998 6.29922C14.3998 6.79628 13.9969 7.19922 13.4998 7.19922H4.4998C4.00275 7.19922 3.5998 6.79628 3.5998 6.29922Z" fill="#999999"/>
<path d="M1.7998 9.89922C1.7998 8.90511 2.60569 8.09922 3.5998 8.09922H14.3998C15.3939 8.09922 16.1998 8.90511 16.1998 9.89922V13.4992C16.1998 14.4933 15.3939 15.2992 14.3998 15.2992H3.5998C2.60569 15.2992 1.7998 14.4933 1.7998 13.4992V9.89922Z" fill="#999999"/>
</svg>
