<svg width="12" height="12" viewBox="0 0 12 12" fill="none" xmlns="http://www.w3.org/2000/svg">
<path d="M11.6004 5.68929C11.6025 6.51054 11.4106 7.32068 11.0404 8.05373C10.6014 8.93215 9.92644 9.67099 9.09123 10.1875C8.25603 10.704 7.29351 10.9778 6.31149 10.9782C5.49024 10.9803 4.6801 10.7884 3.94705 10.4182L0.400391 11.6004L1.58261 8.05373C1.21235 7.32068 1.02047 6.51054 1.02261 5.68929C1.02299 4.70727 1.29677 3.74476 1.81328 2.90955C2.32979 2.07434 3.06863 1.39943 3.94705 0.960408C4.6801 0.590143 5.49024 0.398267 6.31149 0.400408H6.6226C7.91953 0.471959 9.14449 1.01937 10.063 1.93783C10.9814 2.85629 11.5288 4.08125 11.6004 5.37818V5.68929Z" fill="#666666"/>
</svg>
