<svg width="28" height="19" viewBox="0 0 28 19" fill="none" xmlns="http://www.w3.org/2000/svg">
<path d="M13.0195 18.1582H25.2852C26.8867 18.1582 27.6875 17.6374 27.6875 16.5957C27.6875 15.9577 27.4922 15.2773 27.1016 14.5547C26.7109 13.832 26.1445 13.1517 25.4023 12.5137C24.6667 11.8691 23.7715 11.3451 22.7168 10.9414C21.6686 10.5378 20.4805 10.3359 19.1523 10.3359C17.8307 10.3359 16.6426 10.5378 15.5879 10.9414C14.5397 11.3451 13.6445 11.8691 12.9023 12.5137C12.1667 13.1517 11.6035 13.832 11.2129 14.5547C10.8223 15.2773 10.627 15.9577 10.627 16.5957C10.627 17.6374 11.4245 18.1582 13.0195 18.1582ZM12.5508 16.6836C12.4271 16.6836 12.3359 16.6641 12.2773 16.625C12.2253 16.5859 12.1992 16.5143 12.1992 16.4102C12.1992 16.013 12.349 15.554 12.6484 15.0332C12.9544 14.5059 13.4036 13.998 13.9961 13.5098C14.5885 13.0215 15.3145 12.6178 16.1738 12.2988C17.0397 11.9733 18.0326 11.8105 19.1523 11.8105C20.2721 11.8105 21.265 11.9733 22.1309 12.2988C22.9967 12.6178 23.7259 13.0215 24.3184 13.5098C24.9108 13.998 25.3568 14.5059 25.6562 15.0332C25.9622 15.554 26.1152 16.013 26.1152 16.4102C26.1152 16.5143 26.0859 16.5859 26.0273 16.625C25.9753 16.6641 25.8841 16.6836 25.7539 16.6836H12.5508ZM19.1621 9.125C19.9368 9.125 20.6432 8.91667 21.2812 8.5C21.9193 8.08333 22.4271 7.52995 22.8047 6.83984C23.1888 6.14323 23.3809 5.375 23.3809 4.53516C23.3809 3.70182 23.1921 2.94987 22.8145 2.2793C22.4368 1.60221 21.929 1.0651 21.291 0.667969C20.653 0.270833 19.9434 0.0722656 19.1621 0.0722656C18.3874 0.0722656 17.681 0.274089 17.043 0.677734C16.4049 1.08138 15.8939 1.62174 15.5098 2.29883C15.1322 2.97591 14.9434 3.72786 14.9434 4.55469C14.9434 5.38802 15.1322 6.15299 15.5098 6.84961C15.8939 7.53971 16.4049 8.0931 17.043 8.50977C17.681 8.91992 18.3874 9.125 19.1621 9.125ZM19.1621 7.65039C18.6868 7.65039 18.2474 7.51367 17.8438 7.24023C17.4466 6.96029 17.1243 6.58594 16.877 6.11719C16.6361 5.64844 16.5156 5.1276 16.5156 4.55469C16.5156 3.98828 16.6328 3.48047 16.8672 3.03125C17.1081 2.57552 17.4303 2.21419 17.834 1.94727C18.2376 1.68034 18.6803 1.54688 19.1621 1.54688C19.6504 1.54688 20.0931 1.67708 20.4902 1.9375C20.8939 2.19792 21.2129 2.55599 21.4473 3.01172C21.6882 3.46094 21.8086 3.96875 21.8086 4.53516C21.8086 5.10807 21.6882 5.63216 21.4473 6.10742C21.2064 6.57617 20.8841 6.95052 20.4805 7.23047C20.0833 7.51042 19.6439 7.65039 19.1621 7.65039ZM2.47266 18.1582H10.1387C9.9043 18.028 9.71224 17.8294 9.5625 17.5625C9.41276 17.2956 9.35417 17.0124 9.38672 16.7129H2.23828C2.13411 16.7129 2.05924 16.6901 2.01367 16.6445C1.9681 16.6055 1.94531 16.5404 1.94531 16.4492C1.94531 15.8438 2.10156 15.2611 2.41406 14.7012C2.73307 14.1413 3.16927 13.64 3.72266 13.1973C4.27604 12.7546 4.91081 12.4062 5.62695 12.1523C6.3431 11.8919 7.10156 11.7617 7.90234 11.7617C8.3125 11.7617 8.70638 11.7943 9.08398 11.8594C9.4681 11.9245 9.83268 12.0189 10.1777 12.1426C10.5293 12.2663 10.8646 12.4225 11.1836 12.6113C11.3333 12.416 11.4993 12.2337 11.6816 12.0645C11.8639 11.8887 12.0658 11.7259 12.2871 11.5762C11.8639 11.2962 11.4147 11.0651 10.9395 10.8828C10.4707 10.694 9.98242 10.554 9.47461 10.4629C8.9668 10.3652 8.44271 10.3164 7.90234 10.3164C6.88021 10.3164 5.91992 10.4857 5.02148 10.8242C4.12956 11.1628 3.3418 11.625 2.6582 12.2109C1.98112 12.7969 1.45052 13.4609 1.06641 14.2031C0.682292 14.9453 0.490234 15.7233 0.490234 16.5371C0.490234 17.0775 0.65625 17.4811 0.988281 17.748C1.32031 18.0215 1.8151 18.1582 2.47266 18.1582ZM7.91211 9.20312C8.58268 9.20312 9.19466 9.02409 9.74805 8.66602C10.3014 8.30143 10.7441 7.81641 11.0762 7.21094C11.4082 6.59896 11.5742 5.92188 11.5742 5.17969C11.5742 4.45703 11.4082 3.79948 11.0762 3.20703C10.7507 2.61458 10.3112 2.14258 9.75781 1.79102C9.20443 1.43945 8.58919 1.26367 7.91211 1.26367C7.24154 1.26367 6.6263 1.44271 6.06641 1.80078C5.51302 2.15234 5.07031 2.6276 4.73828 3.22656C4.40625 3.82552 4.24349 4.48307 4.25 5.19922C4.25 5.9349 4.41602 6.60547 4.74805 7.21094C5.08008 7.81641 5.52279 8.30143 6.07617 8.66602C6.62956 9.02409 7.24154 9.20312 7.91211 9.20312ZM7.91211 7.74805C7.51497 7.74805 7.14714 7.63411 6.80859 7.40625C6.47656 7.17839 6.20964 6.8724 6.00781 6.48828C5.80599 6.09766 5.70508 5.66797 5.70508 5.19922C5.70508 4.74349 5.80273 4.32682 5.99805 3.94922C6.19987 3.57161 6.4668 3.27214 6.79883 3.05078C7.13737 2.82943 7.50846 2.71875 7.91211 2.71875C8.32227 2.71875 8.69336 2.82943 9.02539 3.05078C9.36393 3.26562 9.63086 3.55859 9.82617 3.92969C10.028 4.30078 10.1289 4.71745 10.1289 5.17969C10.1289 5.65495 10.028 6.08789 9.82617 6.47852C9.62435 6.86914 9.35417 7.17839 9.01562 7.40625C8.67708 7.63411 8.30924 7.74805 7.91211 7.74805Z" fill="#999999"/>
</svg>
