<svg width="32" height="32" viewBox="0 0 32 32" fill="none" xmlns="http://www.w3.org/2000/svg">
<g opacity="0.2">
<circle cx="16" cy="16" r="16" fill="white"/>
<circle cx="16" cy="16" r="16" fill="#4595D0"/>
</g>
<path d="M23 15.6111C23.0027 16.6377 22.7628 17.6504 22.3 18.5667C21.7512 19.6647 20.9076 20.5882 19.8636 21.2339C18.8195 21.8795 17.6164 22.2217 16.3889 22.2222C15.3623 22.2249 14.3496 21.9851 13.4333 21.5222L9 23L10.4778 18.5667C10.0149 17.6504 9.7751 16.6377 9.77778 15.6111C9.77825 14.3836 10.1205 13.1805 10.7661 12.1364C11.4117 11.0924 12.3353 10.2488 13.4333 9.70002C14.3496 9.23719 15.3623 8.99735 16.3889 9.00002H16.7778C18.3989 9.08946 19.9301 9.77372 21.0782 10.9218C22.2263 12.0699 22.9105 13.6011 23 15.2222V15.6111Z" fill="#4595D0"/>
</svg>
