<svg width="24" height="24" viewBox="0 0 24 24" fill="none" xmlns="http://www.w3.org/2000/svg">
<path d="M17.7598 9.83984H11.2798C10.4846 9.83984 9.83984 10.4846 9.83984 11.2798V17.7598C9.83984 18.5551 10.4846 19.1998 11.2798 19.1998H17.7598C18.5551 19.1998 19.1998 18.5551 19.1998 17.7598V11.2798C19.1998 10.4846 18.5551 9.83984 17.7598 9.83984Z" stroke="#999999" stroke-width="1.5" stroke-linecap="round" stroke-linejoin="round"/>
<path d="M6.96078 14.1608H6.24078C5.85887 14.1608 5.4926 14.0091 5.22255 13.739C4.9525 13.469 4.80078 13.1027 4.80078 12.7208V6.24078C4.80078 5.85887 4.9525 5.4926 5.22255 5.22255C5.4926 4.9525 5.85887 4.80078 6.24078 4.80078H12.7208C13.1027 4.80078 13.469 4.9525 13.739 5.22255C14.0091 5.4926 14.1608 5.85887 14.1608 6.24078V6.96078" stroke="#999999" stroke-width="1.5" stroke-linecap="round" stroke-linejoin="round"/>
</svg>
