<svg width="115" height="99" viewBox="0 0 115 99" fill="none" xmlns="http://www.w3.org/2000/svg">
<rect x="29.8057" y="70.2598" width="23.6364" height="5.06494" rx="1" fill="#74757D"/>
<rect opacity="0.7" x="29.8057" y="80.3896" width="4.22078" height="4.22078" rx="1" fill="#74757D"/>
<rect opacity="0.7" x="29.8057" y="93.896" width="4.22078" height="4.22078" rx="1" fill="#74757D"/>
<rect opacity="0.7" x="29.8057" y="87.1431" width="4.22078" height="4.22078" rx="1" fill="#74757D"/>
<rect opacity="0.7" x="36.5586" y="81.2339" width="20.2597" height="2.53247" rx="1" fill="#74757D"/>
<rect opacity="0.7" x="64.416" y="81.2339" width="4.22078" height="2.53247" rx="1" fill="#49494D"/>
<rect opacity="0.7" x="36.5586" y="94.7402" width="20.2597" height="2.53247" rx="1" fill="#74757D"/>
<rect opacity="0.7" x="64.416" y="94.7402" width="4.22078" height="2.53247" rx="1" fill="#49494D"/>
<rect opacity="0.7" x="36.5586" y="87.9868" width="20.2597" height="2.53247" rx="1" fill="#74757D"/>
<rect opacity="0.7" x="64.416" y="87.9868" width="4.22078" height="2.53247" rx="1" fill="#49494D"/>
<rect opacity="0.7" x="75.3906" y="80.3896" width="4.22078" height="4.22078" rx="1" fill="#74757D"/>
<rect opacity="0.7" x="75.3906" y="93.896" width="4.22078" height="4.22078" rx="1" fill="#74757D"/>
<rect opacity="0.7" x="75.3906" y="87.1431" width="4.22078" height="4.22078" rx="1" fill="#74757D"/>
<rect opacity="0.7" x="82.1436" y="81.2339" width="20.2597" height="2.53247" rx="1" fill="#74757D"/>
<rect opacity="0.7" x="110.001" y="81.2339" width="4.22078" height="2.53247" rx="1" fill="#49494D"/>
<rect opacity="0.7" x="82.1436" y="94.7402" width="20.2597" height="2.53247" rx="1" fill="#74757D"/>
<rect opacity="0.7" x="110.001" y="94.7402" width="4.22078" height="2.53247" rx="1" fill="#49494D"/>
<rect opacity="0.7" x="82.1436" y="87.9868" width="20.2597" height="2.53247" rx="1" fill="#74757D"/>
<rect opacity="0.7" x="110.001" y="87.9868" width="4.22078" height="2.53247" rx="1" fill="#49494D"/>
<rect x="29.8057" y="39.0259" width="23.6364" height="4.22078" rx="1" fill="#74757D"/>
<rect opacity="0.7" x="29.8057" y="47.4678" width="84.4156" height="2.53247" rx="1" fill="#74757D"/>
<rect opacity="0.7" x="29.8057" y="53.3765" width="84.4156" height="2.53247" rx="1" fill="#74757D"/>
<rect opacity="0.7" x="29.8057" y="59.2856" width="84.4156" height="2.53247" rx="1" fill="#74757D"/>
<rect x="29.8057" y="1.88379" width="34.6104" height="5.90909" rx="1" fill="#74757D"/>
<rect opacity="0.4" x="29.8057" y="24.6758" width="19.4156" height="5.06494" rx="2.53247" fill="#74757D"/>
<rect opacity="0.4" x="68.6367" y="24.6758" width="19.4156" height="5.06494" rx="2.53247" fill="#74757D"/>
<rect opacity="0.4" x="51.7529" y="24.6758" width="14.3506" height="5.06494" rx="2.53247" fill="#74757D"/>
<rect opacity="0.4" x="90.584" y="24.6758" width="14.3506" height="5.06494" rx="2.53247" fill="#74757D"/>
<rect x="29.8057" y="11.1694" width="57.4026" height="2.53247" rx="1" fill="#74757D"/>
<rect x="29.8057" y="17.0786" width="84.4156" height="2.53247" rx="1" fill="#74757D"/>
<circle cx="12.9221" cy="12.8576" r="12.6623" fill="#74757D"/>
</svg>
