<svg width="100" height="100" viewBox="0 0 100 100" fill="none" xmlns="http://www.w3.org/2000/svg">
<rect width="100" height="100" rx="4" fill="#14171A"/>
<path fill-rule="evenodd" clip-rule="evenodd" d="M46.2662 39.0919C46.8947 38.9641 47.4957 38.8786 48.1031 38.8272C48.2424 38.8154 48.3394 38.7897 48.3996 38.6808C48.5008 38.4975 48.6812 38.4272 48.9325 38.4063C49.6082 38.3502 50.2789 38.3463 50.9565 38.3981C51.2834 38.4231 51.5011 38.5153 51.6266 38.754C51.676 38.8481 51.7609 38.8827 51.8884 38.8927C52.1542 38.9135 52.4186 38.9454 52.6823 38.9845C53.0247 39.0352 53.3639 39.0996 53.7193 39.1644C53.6578 38.9348 53.5625 38.7402 53.4552 38.5494C53.0449 37.8201 52.3869 37.3237 51.4078 37.1225C50.6724 36.9714 49.9281 36.9846 49.1825 37.0326C48.7156 37.0627 48.2701 37.1658 47.8544 37.3434C46.9882 37.7134 46.562 38.3449 46.2662 39.0919ZM37.5154 39.758C37.8403 39.8957 38.1008 40.0667 38.3352 40.2662C38.8797 40.7296 39.2546 41.282 39.6021 41.8472C39.9882 42.4753 40.292 43.1315 40.5787 43.7961C40.6355 43.7578 40.6397 43.7118 40.652 43.6673C40.798 43.1412 40.9696 42.6211 41.1894 42.1116C41.5791 41.2088 42.1006 40.374 43.0501 39.7606C43.1456 39.699 43.1378 39.6561 43.0673 39.5836C42.7665 39.2738 42.4419 38.9827 42.063 38.7344C41.7634 38.5381 41.4192 38.4388 41.0279 38.4459C40.1689 38.4615 39.3875 38.6865 38.6462 39.0171C38.2195 39.2073 37.8223 39.43 37.5154 39.758ZM48.8166 39.1064L48.7278 39.121C48.7145 39.1175 48.7008 39.1102 48.6879 39.111C47.5627 39.1794 46.4462 39.2894 45.3626 39.5593C44.2019 39.8481 43.3063 40.4095 42.6839 41.2516C42.1883 41.9223 41.9174 42.6637 41.6704 43.4094C41.4122 44.189 41.2328 44.9836 41.0734 45.7797C40.8161 47.0647 40.6206 48.357 40.4366 49.65C40.3024 50.5932 40.1836 51.538 40.0683 52.483C39.9048 53.8251 39.7594 55.1683 39.7482 56.5185C39.7384 57.7035 39.7711 58.8847 40.2243 60.0284C40.5215 60.7783 41.033 61.3948 41.8937 61.8057C42.7852 62.2314 43.7613 62.4615 44.7608 62.6345C46.2408 62.8908 47.7451 62.9751 49.2545 62.9945C50.8771 63.0152 52.4981 62.9837 54.1076 62.7946C55.2878 62.6559 56.4452 62.4451 57.5403 62.0477C58.5358 61.6865 59.2624 61.1238 59.6575 60.2877C60.0498 59.4576 60.1842 58.5916 60.2299 57.7159C60.3332 55.7372 60.0959 53.7708 59.847 51.8065C59.6643 50.3645 59.4659 48.9237 59.2259 47.4869C59.0791 46.6083 58.9232 45.7312 58.7185 44.8602C58.4807 43.8492 58.1984 42.848 57.7101 41.8923C57.115 40.7275 56.114 39.9051 54.594 39.5525C52.7054 39.1143 50.7718 39.0083 48.8166 39.1064ZM60.713 51.2901C60.7139 51.4049 60.718 51.5195 60.7548 51.6315C60.7948 51.9387 60.8347 52.2459 60.8746 52.5532C60.8572 52.6115 60.866 52.6665 60.9005 52.7412C60.9287 52.6635 60.9901 52.6195 60.9707 52.555C61.092 52.0739 61.2134 51.5929 61.3347 51.1118C61.36 51.0589 61.3838 51.0057 61.3706 50.9472C61.4412 50.8156 61.4572 50.6728 61.5008 50.5356C61.7646 49.7046 61.9446 48.8601 62.1141 48.0143C62.3008 47.0834 62.4617 46.1488 62.6691 45.221C62.924 44.0801 63.0383 42.9328 62.9886 41.7758C62.9702 41.3478 62.9452 40.9171 62.8026 40.4722C62.6838 40.5469 62.5798 40.6031 62.4892 40.671C62.0705 40.9849 61.7736 41.3725 61.5076 41.7733C60.7499 42.9153 60.2583 44.1407 59.7991 45.3756C59.7757 45.4385 59.7892 45.4981 59.8024 45.5603C60.0401 46.6805 60.2127 47.8081 60.3762 48.9365C60.4898 49.7209 60.6008 50.5055 60.713 51.2901ZM37.0726 40.7724C36.9967 41.0174 37.0006 41.2678 37 41.5173C36.9976 42.6513 37.1502 43.7746 37.3339 44.8976C37.4933 45.873 37.7149 46.839 37.9306 47.8061C38.14 48.7441 38.3519 49.6818 38.58 50.617C38.7969 51.5065 38.8752 52.4072 38.9576 53.3084C38.9636 53.3741 38.9495 53.4451 39.0064 53.5106C39.0173 53.4921 39.0313 53.4788 39.0329 53.4646C39.1805 52.1456 39.3497 50.8287 39.5415 49.5133C39.7282 48.2326 39.9064 46.9514 40.1695 45.679C40.2039 45.5129 40.2465 45.3506 40.1689 45.1762C40.0169 44.835 39.9024 44.483 39.7563 44.1398C39.3697 43.2321 38.9579 42.3319 38.3409 41.5052C38.0909 41.1703 37.8323 40.8368 37.4321 40.598C37.3412 40.5352 37.2424 40.4234 37.134 40.4628C37.0437 40.4956 37.0763 40.6327 37.0591 40.7243C37.0562 40.7394 37.0677 40.7562 37.0726 40.7724ZM61.1745 38.9706C60.3432 38.6477 59.4664 38.482 58.5437 38.488C58.2676 38.4897 58.0211 38.5791 57.8139 38.7264C57.4434 38.9901 57.1857 39.3208 56.9648 39.6731C56.9196 39.7451 56.9682 39.7745 57.0254 39.8126C57.287 39.9868 57.5195 40.1837 57.7254 40.4016C58.4577 41.1764 58.8322 42.078 59.1409 43.0025C59.2352 43.2844 59.3192 43.5684 59.4188 43.8867C59.7213 43.195 60.0137 42.5382 60.3969 41.9123C60.8628 41.1512 61.3643 40.4087 62.2377 39.8878L62.3511 39.8294L62.4493 39.7856C62.5404 39.7589 62.4853 39.732 62.4495 39.7052C62.4314 39.6474 62.3844 39.6067 62.3282 39.5713C62.2818 39.5 62.2077 39.4521 62.1229 39.4132C61.933 39.2696 61.712 39.1648 61.4775 39.077C61.3804 39.0342 61.2918 38.9759 61.1745 38.9706Z" fill="white"/>
</svg>
