<svg width="15" height="18" viewBox="0 0 15 18" fill="none" xmlns="http://www.w3.org/2000/svg">
<path d="M1 4.50586H2.4H13.6" stroke="#666666" stroke-width="1.5" stroke-linecap="round" stroke-linejoin="round"/>
<path d="M4.50039 4.50603V2.93563C4.50039 2.51914 4.64789 2.1197 4.91044 1.82519C5.17299 1.53069 5.52909 1.36523 5.90039 1.36523H8.70039C9.07169 1.36523 9.42779 1.53069 9.69034 1.82519C9.95289 2.1197 10.1004 2.51914 10.1004 2.93563V4.50603M12.2004 4.50603V15.4988C12.2004 15.9153 12.0529 16.3148 11.7903 16.6093C11.5278 16.9038 11.1717 17.0692 10.8004 17.0692H3.80039C3.42909 17.0692 3.07299 16.9038 2.81044 16.6093C2.54789 16.3148 2.40039 15.9153 2.40039 15.4988V4.50603H12.2004Z" stroke="#666666" stroke-width="1.5" stroke-linecap="round" stroke-linejoin="round"/>
<path d="M5.90039 8.43213V13.1433" stroke="#666666" stroke-width="1.5" stroke-linecap="round" stroke-linejoin="round"/>
<path d="M8.7002 8.43213V13.1433" stroke="#666666" stroke-width="1.5" stroke-linecap="round" stroke-linejoin="round"/>
</svg>
