<svg width="65" height="65" viewBox="0 0 65 65" fill="none" xmlns="http://www.w3.org/2000/svg">
<rect x="0.5" y="0.5" width="64" height="64" rx="32" fill="#2A2A2E"/>
<path d="M42.8027 21.3848H22.1973C20.9857 21.3848 20 22.3705 20 23.582V37.1696C20 38.3812 20.9857 39.3668 22.1973 39.3668H29.5944V42.1508H28.4916C28.0871 42.1508 27.7591 42.4788 27.7591 42.8833C27.7591 43.2877 28.0871 43.6157 28.4916 43.6157H36.5085C36.913 43.6157 37.2409 43.2877 37.2409 42.8833C37.2409 42.4788 36.913 42.1508 36.5085 42.1508H35.4056V39.3668H42.8027C44.0143 39.3668 45 38.3812 45 37.1696V23.582C45 22.3705 44.0143 21.3848 42.8027 21.3848ZM33.9407 42.1509H31.0593V39.3669H33.9407V42.1509ZM43.5352 37.1696C43.5352 37.5735 43.2066 37.9021 42.8027 37.9021H22.1973C21.7934 37.9021 21.4648 37.5735 21.4648 37.1696V36.0562H43.5352V37.1696ZM43.5352 34.5914H21.4648V23.582C21.4648 23.1782 21.7934 22.8496 22.1973 22.8496H42.8027C43.2066 22.8496 43.5352 23.1782 43.5352 23.582V34.5914Z" fill="#4595D0"/>
<path d="M28.9002 30.5904L26.9162 29.2359L28.9002 27.8813C29.2343 27.6532 29.3202 27.1975 29.0921 26.8634C28.8641 26.5294 28.4083 26.4435 28.0743 26.6715L25.2042 28.6309C25.0043 28.7674 24.8848 28.9938 24.8848 29.2358C24.8848 29.4778 25.0043 29.7043 25.2042 29.8408L28.0743 31.8002C28.2006 31.8865 28.3443 31.9278 28.4866 31.9278C28.7205 31.9278 28.9503 31.816 29.0921 31.6083C29.3202 31.2742 29.2343 30.8185 28.9002 30.5904Z" fill="#4595D0"/>
<path d="M39.7958 28.6309L36.9257 26.6715C36.5917 26.4435 36.136 26.5294 35.9079 26.8634C35.6798 27.1975 35.7657 27.6532 36.0998 27.8813L38.0838 29.2359L36.0998 30.5903C35.7657 30.8184 35.6798 31.2741 35.9079 31.6082C36.0497 31.8159 36.2795 31.9277 36.5134 31.9277C36.6557 31.9277 36.7994 31.8863 36.9257 31.8001L39.7958 29.8407C39.9957 29.7042 40.1152 29.4778 40.1152 29.2358C40.1152 28.9938 39.9957 28.7675 39.7958 28.6309Z" fill="#4595D0"/>
<path d="M34.3286 25.9818C33.9761 25.7836 33.5295 25.9087 33.3313 26.2614L30.3909 31.492C30.1928 31.8445 30.3179 32.2911 30.6706 32.4893C30.784 32.5531 30.9072 32.5834 31.0288 32.5834C31.2848 32.5834 31.5335 32.4489 31.6679 32.2098L34.6082 26.9791C34.8064 26.6266 34.6813 26.18 34.3286 25.9818Z" fill="#4595D0"/>
</svg>
