<svg width="129" height="96" viewBox="0 0 129 96" fill="none" xmlns="http://www.w3.org/2000/svg">
<rect x="30.1885" y="1.88281" width="34.8766" height="5.90909" rx="1" fill="#74757D"/>
<rect opacity="0.4" x="30.1885" y="23.8315" width="19.5649" height="5.06494" rx="2.53247" fill="#74757D"/>
<rect opacity="0.4" x="69.3184" y="23.8315" width="19.5649" height="5.06494" rx="2.53247" fill="#74757D"/>
<rect opacity="0.4" x="52.3057" y="23.8315" width="14.461" height="5.06494" rx="2.53247" fill="#74757D"/>
<rect opacity="0.4" x="91.4355" y="23.8315" width="14.461" height="5.06494" rx="2.53247" fill="#74757D"/>
<rect x="30.1885" y="11.1689" width="57.8442" height="2.53247" rx="1" fill="#74757D"/>
<rect x="30.1885" y="17.0781" width="85.0649" height="2.53247" rx="1" fill="#74757D"/>
<rect x="0.416016" y="87.1426" width="120.792" height="2.53247" rx="1" fill="#74757D"/>
<rect x="0.416016" y="93.0518" width="56.9935" height="2.53247" rx="1" fill="#74757D"/>
<rect x="0.416016" y="41.5581" width="21.2662" height="4.22078" rx="1" fill="#74757D"/>
<ellipse cx="13.1758" cy="12.8572" rx="12.7597" ry="12.6623" fill="#74757D"/>
<rect x="0.416016" y="49.1562" width="127.597" height="32.9221" rx="3" fill="#74757D"/>
</svg>
