<svg width="18" height="15" viewBox="0 0 18 15" fill="none" xmlns="http://www.w3.org/2000/svg">
<path d="M12.1562 14.3516C12.5417 14.3516 12.8932 14.2552 13.2109 14.0625C13.5339 13.875 13.7891 13.6224 13.9766 13.3047C14.1693 12.987 14.2656 12.6354 14.2656 12.25C14.2656 11.8646 14.1693 11.513 13.9766 11.1953C13.7891 10.8724 13.5365 10.6172 13.2188 10.4297C12.901 10.237 12.5469 10.1406 12.1562 10.1406C11.7708 10.1406 11.4167 10.237 11.0938 10.4297C10.776 10.6172 10.5208 10.8724 10.3281 11.1953C10.1406 11.513 10.0469 11.8646 10.0469 12.25C10.0469 12.6354 10.1406 12.987 10.3281 13.3047C10.5208 13.6224 10.776 13.875 11.0938 14.0625C11.4167 14.2552 11.7708 14.3516 12.1562 14.3516ZM12.1562 13.2344C11.8854 13.2344 11.6536 13.138 11.4609 12.9453C11.2682 12.7526 11.1719 12.5208 11.1719 12.25C11.1719 11.9688 11.2682 11.7344 11.4609 11.5469C11.6536 11.3542 11.8854 11.2578 12.1562 11.2578C12.4323 11.2578 12.6667 11.3542 12.8594 11.5469C13.0521 11.7344 13.1484 11.9688 13.1484 12.25C13.1484 12.5208 13.0521 12.7526 12.8594 12.9453C12.6667 13.138 12.4323 13.2344 12.1562 13.2344ZM10.7656 11.4219H1.79688C1.57292 11.4219 1.38281 11.5026 1.22656 11.6641C1.07031 11.8255 0.992188 12.0208 0.992188 12.25C0.992188 12.4688 1.07031 12.6615 1.22656 12.8281C1.38802 12.9896 1.57812 13.0703 1.79688 13.0703H10.7656V11.4219ZM16.5859 11.4219H13.6172V13.0703H16.5859C16.8047 13.0703 16.9922 12.9896 17.1484 12.8281C17.3047 12.6615 17.3828 12.4688 17.3828 12.25C17.3828 12.0208 17.3047 11.8255 17.1484 11.6641C16.9922 11.5026 16.8047 11.4219 16.5859 11.4219ZM6.30469 9.42969C6.6901 9.42969 7.04167 9.33333 7.35938 9.14062C7.67708 8.94792 7.93229 8.69271 8.125 8.375C8.31771 8.05729 8.41406 7.70312 8.41406 7.3125C8.41406 6.92708 8.31771 6.57552 8.125 6.25781C7.93229 5.9401 7.67708 5.6875 7.35938 5.5C7.04167 5.30729 6.6901 5.21094 6.30469 5.21094C5.91927 5.21094 5.5651 5.30729 5.24219 5.5C4.92448 5.6875 4.67188 5.9401 4.48438 6.25781C4.29688 6.57552 4.20312 6.92708 4.20312 7.3125C4.20312 7.70312 4.29688 8.05729 4.48438 8.375C4.67188 8.69271 4.92448 8.94792 5.24219 9.14062C5.5651 9.33333 5.91927 9.42969 6.30469 9.42969ZM6.30469 8.30469C6.02865 8.30469 5.79427 8.20833 5.60156 8.01562C5.40885 7.82292 5.3125 7.58854 5.3125 7.3125C5.3125 7.03125 5.40885 6.79688 5.60156 6.60938C5.79427 6.42188 6.02865 6.32812 6.30469 6.32812C6.58594 6.32812 6.82031 6.42188 7.00781 6.60938C7.20052 6.79688 7.29688 7.03125 7.29688 7.3125C7.29688 7.58854 7.20052 7.82292 7.00781 8.01562C6.82031 8.20833 6.58594 8.30469 6.30469 8.30469ZM1.78125 6.48438C1.56771 6.48438 1.38281 6.56771 1.22656 6.73438C1.07031 6.89583 0.992188 7.08854 0.992188 7.3125C0.992188 7.53646 1.07031 7.73177 1.22656 7.89844C1.38281 8.0599 1.56771 8.14062 1.78125 8.14062H4.88281V6.48438H1.78125ZM16.5703 6.48438H7.66406V8.14062H16.5703C16.7943 8.14062 16.9844 8.0599 17.1406 7.89844C17.3021 7.73698 17.3828 7.54167 17.3828 7.3125C17.3828 7.08333 17.3021 6.88802 17.1406 6.72656C16.9844 6.5651 16.7943 6.48438 16.5703 6.48438ZM12.1562 4.49219C12.5417 4.49219 12.8932 4.39583 13.2109 4.20312C13.5339 4.01042 13.7891 3.75521 13.9766 3.4375C14.1693 3.11979 14.2656 2.76823 14.2656 2.38281C14.2656 1.9974 14.1693 1.64583 13.9766 1.32812C13.7891 1.00521 13.5339 0.75 13.2109 0.5625C12.8932 0.369792 12.5417 0.273438 12.1562 0.273438C11.7708 0.273438 11.4167 0.369792 11.0938 0.5625C10.776 0.75 10.5208 1.00521 10.3281 1.32812C10.1406 1.64583 10.0469 1.9974 10.0469 2.38281C10.0469 2.76823 10.1406 3.11979 10.3281 3.4375C10.5208 3.75521 10.776 4.01042 11.0938 4.20312C11.4167 4.39583 11.7708 4.49219 12.1562 4.49219ZM12.1562 3.375C11.8854 3.375 11.6536 3.27865 11.4609 3.08594C11.2682 2.88802 11.1719 2.65104 11.1719 2.375C11.1719 2.09896 11.2682 1.86719 11.4609 1.67969C11.6536 1.48698 11.8854 1.39062 12.1562 1.39062C12.4323 1.39062 12.6667 1.48698 12.8594 1.67969C13.0521 1.86719 13.1484 2.09896 13.1484 2.375C13.1484 2.65104 13.0521 2.88802 12.8594 3.08594C12.6667 3.27865 12.4323 3.375 12.1562 3.375ZM10.7891 1.55469H1.79688C1.57292 1.55469 1.38281 1.63802 1.22656 1.80469C1.07031 1.96615 0.992188 2.15885 0.992188 2.38281C0.992188 2.60156 1.07031 2.79427 1.22656 2.96094C1.38802 3.1276 1.57812 3.21094 1.79688 3.21094H10.7891V1.55469ZM16.5859 1.55469H13.5391V3.21094H16.5859C16.8047 3.21094 16.9922 3.13021 17.1484 2.96875C17.3047 2.80208 17.3828 2.60677 17.3828 2.38281C17.3828 2.15885 17.3047 1.96615 17.1484 1.80469C16.9922 1.63802 16.8047 1.55469 16.5859 1.55469Z" fill="#D4D4D4"/>
</svg>
