<svg width="32" height="32" viewBox="0 0 32 32" fill="none" xmlns="http://www.w3.org/2000/svg">
<g opacity="0.2">
<circle cx="16" cy="16" r="16" fill="white"/>
<circle cx="16" cy="16" r="16" fill="#4595D0"/>
</g>
<path d="M21.6667 22.9997V21.4441C21.6667 20.619 21.3594 19.8277 20.8124 19.2442C20.2654 18.6608 19.5235 18.333 18.75 18.333H12.9167C12.1431 18.333 11.4013 18.6608 10.8543 19.2442C10.3073 19.8277 10 20.619 10 21.4441V22.9997" stroke="#4595D0" stroke-width="1.5" stroke-linecap="round" stroke-linejoin="round"/>
<path d="M15.9393 14.9394C17.5794 14.9394 18.909 13.6098 18.909 11.9697C18.909 10.3296 17.5794 9 15.9393 9C14.2992 9 12.9696 10.3296 12.9696 11.9697C12.9696 13.6098 14.2992 14.9394 15.9393 14.9394Z" stroke="#4595D0" stroke-width="1.5" stroke-linecap="round" stroke-linejoin="round"/>
</svg>
