<svg width="16" height="16" viewBox="0 0 16 16" fill="none" xmlns="http://www.w3.org/2000/svg">
<path d="M3.22724 14.9999C4.45731 14.9999 5.45448 14.0027 5.45448 12.7727C5.45448 11.5426 4.45731 10.5454 3.22724 10.5454C1.99717 10.5454 1 11.5426 1 12.7727C1 14.0027 1.99717 14.9999 3.22724 14.9999Z" stroke="#666666" stroke-width="1.5" stroke-linecap="round" stroke-linejoin="round"/>
<path d="M12.7722 5.45448C14.0022 5.45448 14.9994 4.45731 14.9994 3.22724C14.9994 1.99717 14.0022 1 12.7722 1C11.5421 1 10.5449 1.99717 10.5449 3.22724C10.5449 4.45731 11.5421 5.45448 12.7722 5.45448Z" stroke="#666666" stroke-width="1.5" stroke-linecap="round" stroke-linejoin="round"/>
<path d="M3.22724 5.45448C4.45731 5.45448 5.45448 4.45731 5.45448 3.22724C5.45448 1.99717 4.45731 1 3.22724 1C1.99717 1 1 1.99717 1 3.22724C1 4.45731 1.99717 5.45448 3.22724 5.45448Z" stroke="#666666" stroke-width="1.5" stroke-linecap="round" stroke-linejoin="round"/>
<path d="M3.22656 10.5454V9.90906C3.22657 9.40276 3.42771 8.9172 3.78572 8.5592C4.14373 8.20119 4.62929 8.00007 5.13559 8.00007L10.8629 7.99995C11.3692 7.99995 11.8547 7.79883 12.2127 7.44082C12.5707 7.08282 12.7719 6.59726 12.7719 6.09096V5.45459" stroke="#666666" stroke-width="1.5" stroke-linecap="round" stroke-linejoin="round"/>
<path d="M3.22656 5.45459V10.5454" stroke="#666666" stroke-width="1.5" stroke-linecap="round" stroke-linejoin="round"/>
</svg>
