<svg width="20" height="20" viewBox="0 0 20 20" fill="none" xmlns="http://www.w3.org/2000/svg">
<path d="M3 5C3 3.89543 3.89543 3 5 3H15C16.1046 3 17 3.89543 17 5V15C17 16.1046 16.1046 17 15 17H5C3.89543 17 3 16.1046 3 15V5Z" stroke="#999999" stroke-width="1.5" stroke-linecap="round" stroke-linejoin="round"/>
<path d="M12.4004 13.7331V9.99974C12.4004 9.7522 12.4987 9.51481 12.6738 9.33977C12.8488 9.16474 13.0862 9.06641 13.3337 9.06641H14.2671" stroke="#999999" stroke-width="1.5" stroke-linecap="round" stroke-linejoin="round"/>
<path d="M12.4004 11.8662H13.8004" stroke="#999999" stroke-width="1.5" stroke-linecap="round" stroke-linejoin="round"/>
<path d="M10.334 13.7331V9.06641" stroke="#999999" stroke-width="1.5" stroke-linecap="round" stroke-linejoin="round"/>
<path d="M7.67578 11.8664H8.30078V12.7997C8.30078 13.0473 8.16909 13.2847 7.93466 13.4597C7.70024 13.6347 7.3823 13.7331 7.05078 13.7331C6.71926 13.7331 6.40132 13.6347 6.1669 13.4597C5.93248 13.2847 5.80078 13.0473 5.80078 12.7997V9.99974C5.80078 9.7522 5.93248 9.51481 6.1669 9.33977C6.40132 9.16474 6.71926 9.06641 7.05078 9.06641H8.30078" stroke="#999999" stroke-width="1.5" stroke-linecap="round" stroke-linejoin="round"/>
</svg>
