<svg width="32" height="32" viewBox="0 0 32 32" fill="none" xmlns="http://www.w3.org/2000/svg">
<g opacity="0.2">
<circle cx="16" cy="16" r="16" fill="#101011"/>
<circle cx="16" cy="16" r="16" fill="#4595D0"/>
</g>
<path d="M15 10.8042C13.9428 10.2891 12.7552 10 11.5 10C10.2448 10 9.0572 10.2891 8 10.8042V20.8042C9.0572 20.2891 10.2448 20 11.5 20C13.1686 20 14.7179 20.5108 16 21.3847C17.2821 20.5108 18.8314 20 20.5 20C21.7552 20 22.9428 20.2891 24 20.8042V10.8042C22.9428 10.2891 21.7552 10 20.5 10C19.2448 10 18.0572 10.2891 17 10.8042V18C17 18.5523 16.5523 19 16 19C15.4477 19 15 18.5523 15 18V10.8042Z" fill="#4595D0"/>
</svg>
