<svg width="24" height="22" viewBox="0 0 24 22" fill="none" xmlns="http://www.w3.org/2000/svg">
<path d="M9.32812 20.377H14.9629V13.2676C14.9629 13.0462 14.8945 12.8672 14.7578 12.7305C14.6211 12.5938 14.4421 12.5254 14.2207 12.5254H10.0801C9.85221 12.5254 9.66992 12.5938 9.5332 12.7305C9.39648 12.8672 9.32812 13.0462 9.32812 13.2676V20.377ZM5.50977 21.3828H18.7227C19.4193 21.3828 19.9596 21.194 20.3438 20.8164C20.7279 20.4388 20.9199 19.9082 20.9199 19.2246V8.43359L19.3477 7.35938V18.8242C19.3477 19.1432 19.2663 19.3874 19.1035 19.5566C18.9408 19.7259 18.7031 19.8105 18.3906 19.8105H5.8418C5.5293 19.8105 5.28841 19.7259 5.11914 19.5566C4.95638 19.3874 4.875 19.1432 4.875 18.8242V7.36914L3.30273 8.43359V19.2246C3.30273 19.9082 3.49479 20.4388 3.87891 20.8164C4.26953 21.194 4.81315 21.3828 5.50977 21.3828ZM0.490234 10.5137C0.490234 10.7155 0.565104 10.8978 0.714844 11.0605C0.864583 11.2168 1.06966 11.2949 1.33008 11.2949C1.4668 11.2949 1.59049 11.2624 1.70117 11.1973C1.81836 11.1322 1.92904 11.0605 2.0332 10.9824L11.8086 2.7793C11.9193 2.68164 12.0332 2.63281 12.1504 2.63281C12.2741 2.63281 12.3913 2.68164 12.502 2.7793L22.2773 10.9824C22.375 11.0605 22.4792 11.1322 22.5898 11.1973C22.707 11.2624 22.834 11.2949 22.9707 11.2949C23.1986 11.2949 23.3939 11.2298 23.5566 11.0996C23.7194 10.9629 23.8008 10.7773 23.8008 10.543C23.8008 10.2695 23.6999 10.0482 23.498 9.87891L13.332 1.33398C12.9674 1.02799 12.5736 0.875 12.1504 0.875C11.7337 0.875 11.3431 1.02799 10.9785 1.33398L0.802734 9.87891C0.594401 10.0482 0.490234 10.2598 0.490234 10.5137ZM18.4688 6.10938L20.9199 8.17969V3.66797C20.9199 3.45312 20.8548 3.28385 20.7246 3.16016C20.6009 3.02995 20.4316 2.96484 20.2168 2.96484H19.1719C18.9635 2.96484 18.7943 3.02995 18.6641 3.16016C18.5339 3.28385 18.4688 3.45312 18.4688 3.66797V6.10938Z" fill="#999999"/>
</svg>
