<svg width="24" height="22" viewBox="0 0 24 22" fill="none" xmlns="http://www.w3.org/2000/svg">
<path d="M14.6602 19.8105H9.62109V13.3555C9.62109 13.1276 9.68945 12.9486 9.82617 12.8184C9.9694 12.6816 10.1517 12.6133 10.373 12.6133H13.918C14.1458 12.6133 14.3249 12.6816 14.4551 12.8184C14.5918 12.9486 14.6602 13.1276 14.6602 13.3555V19.8105ZM3.53711 19.2246C3.53711 19.9082 3.72917 20.4388 4.11328 20.8164C4.50391 21.194 5.04427 21.3828 5.73438 21.3828H18.5762C19.2598 21.3828 19.7936 21.194 20.1777 20.8164C20.5684 20.4388 20.7637 19.9082 20.7637 19.2246V11.4902L12.7363 4.76172C12.3457 4.42969 11.9551 4.42969 11.5645 4.76172L3.53711 11.4902V19.2246ZM0.490234 10.5137C0.490234 10.7155 0.565104 10.8978 0.714844 11.0605C0.864583 11.2168 1.06966 11.2949 1.33008 11.2949C1.4668 11.2949 1.59049 11.2624 1.70117 11.1973C1.81836 11.1322 1.92904 11.0605 2.0332 10.9824L11.8086 2.7793C11.9193 2.68164 12.0332 2.63281 12.1504 2.63281C12.2741 2.63281 12.3913 2.68164 12.502 2.7793L22.2773 10.9824C22.375 11.0605 22.4792 11.1322 22.5898 11.1973C22.707 11.2624 22.834 11.2949 22.9707 11.2949C23.1986 11.2949 23.3939 11.2298 23.5566 11.0996C23.7194 10.9629 23.8008 10.7773 23.8008 10.543C23.8008 10.2695 23.6999 10.0482 23.498 9.87891L13.332 1.33398C12.9674 1.02799 12.5736 0.875 12.1504 0.875C11.7337 0.875 11.3431 1.02799 10.9785 1.33398L0.802734 9.87891C0.594401 10.0482 0.490234 10.2598 0.490234 10.5137ZM18.3125 6.10938L20.7637 8.17969V3.66797C20.7637 3.45312 20.6986 3.28385 20.5684 3.16016C20.4447 3.02995 20.2754 2.96484 20.0605 2.96484H19.0156C18.8073 2.96484 18.638 3.02995 18.5078 3.16016C18.3776 3.28385 18.3125 3.45312 18.3125 3.66797V6.10938Z" fill="#4595D0"/>
</svg>
