<svg width="16" height="16" viewBox="0 0 16 16" fill="none" xmlns="http://www.w3.org/2000/svg">
<path fill-rule="evenodd" clip-rule="evenodd" d="M14.4 7.99961C14.4 11.5342 11.5346 14.3996 8 14.3996C4.46538 14.3996 1.6 11.5342 1.6 7.99961C1.6 4.46499 4.46538 1.59961 8 1.59961C11.5346 1.59961 14.4 4.46499 14.4 7.99961ZM8.8 4.79961C8.8 5.24144 8.44183 5.59961 8 5.59961C7.55817 5.59961 7.2 5.24144 7.2 4.79961C7.2 4.35778 7.55817 3.99961 8 3.99961C8.44183 3.99961 8.8 4.35778 8.8 4.79961ZM7.2 7.19961C6.75817 7.19961 6.4 7.55778 6.4 7.99961C6.4 8.44144 6.75817 8.79961 7.2 8.79961V11.1996C7.2 11.6414 7.55817 11.9996 8 11.9996H8.8C9.24183 11.9996 9.6 11.6414 9.6 11.1996C9.6 10.7578 9.24183 10.3996 8.8 10.3996V7.99961C8.8 7.55778 8.44183 7.19961 8 7.19961H7.2Z" fill="#666666"/>
</svg>
