<svg width="32" height="32" viewBox="0 0 32 32" fill="none" xmlns="http://www.w3.org/2000/svg">
<g opacity="0.2">
<circle cx="16" cy="16" r="16" fill="white"/>
<circle cx="16" cy="16" r="16" fill="#4595D0"/>
</g>
<path d="M19 22V20.6667C19 19.9594 18.719 19.2811 18.219 18.781C17.7189 18.281 17.0406 18 16.3333 18H11.6667C10.9594 18 10.2811 18.281 9.78105 18.781C9.28095 19.2811 9 19.9594 9 20.6667V22" stroke="#4595D0" stroke-width="1.5" stroke-linecap="round" stroke-linejoin="round"/>
<path d="M13.7727 15.0909C15.1786 15.0909 16.3182 13.9513 16.3182 12.5455C16.3182 11.1396 15.1786 10 13.7727 10C12.3669 10 11.2273 11.1396 11.2273 12.5455C11.2273 13.9513 12.3669 15.0909 13.7727 15.0909Z" stroke="#4595D0" stroke-width="1.5" stroke-linecap="round" stroke-linejoin="round"/>
<path d="M21.0909 13.1816V16.9998" stroke="#4595D0" stroke-width="1.5" stroke-linecap="round" stroke-linejoin="round"/>
<path d="M22.9999 15.0908H19.1818" stroke="#4595D0" stroke-width="1.5" stroke-linecap="round" stroke-linejoin="round"/>
</svg>
