<svg width="24" height="24" viewBox="0 0 24 24" fill="none" xmlns="http://www.w3.org/2000/svg">
<path d="M20.2101 14.0573C17.6014 15.1121 14.8134 15.6526 11.9996 15.6492C9.0958 15.6492 6.3252 15.0836 3.78906 14.0573M11.9996 12.9124H12.0087M15.6487 7.43867V5.61411C15.6487 5.13021 15.4565 4.66612 15.1143 4.32395C14.7721 3.98178 14.3081 3.78955 13.8242 3.78955H10.175C9.69112 3.78955 9.22704 3.98178 8.88487 4.32395C8.5427 4.66612 8.35047 5.13021 8.35047 5.61411V7.43867H15.6487ZM5.61362 20.2106H18.3856C18.8695 20.2106 19.3335 20.0184 19.6757 19.6762C20.0179 19.334 20.2101 18.8699 20.2101 18.386V9.26324C20.2101 8.77933 20.0179 8.31525 19.6757 7.97308C19.3335 7.6309 18.8695 7.43867 18.3856 7.43867H5.61362C5.12972 7.43867 4.66564 7.6309 4.32346 7.97308C3.98129 8.31525 3.78906 8.77933 3.78906 9.26324V18.386C3.78906 18.8699 3.98129 19.334 4.32346 19.6762C4.66564 20.0184 5.12972 20.2106 5.61362 20.2106Z" stroke="#D4D4D4" stroke-width="1.5" stroke-linecap="round" stroke-linejoin="round"/>
</svg>
