<svg width="100" height="90" viewBox="0 0 100 90" fill="none" xmlns="http://www.w3.org/2000/svg">
<rect width="100" height="90" rx="4" fill="white"/>
<path fill-rule="evenodd" clip-rule="evenodd" d="M46.2662 34.8505C46.8947 34.7375 47.4957 34.6619 48.1031 34.6164C48.2424 34.6059 48.3394 34.5832 48.3996 34.4869C48.5008 34.3247 48.6812 34.2626 48.9325 34.2441C49.6082 34.1944 50.2789 34.1909 50.9565 34.2368C51.2834 34.2589 51.5011 34.3404 51.6266 34.5517C51.676 34.6349 51.7609 34.6655 51.8884 34.6743C52.1542 34.6927 52.4186 34.7209 52.6823 34.7555C53.0247 34.8004 53.3639 34.8573 53.7193 34.9147C53.6578 34.7116 53.5625 34.5394 53.4552 34.3707C53.0449 33.7255 52.3869 33.2864 51.4078 33.1084C50.6724 32.9747 49.9281 32.9864 49.1825 33.0289C48.7156 33.0554 48.2701 33.1466 47.8544 33.3038C46.9882 33.6311 46.562 34.1897 46.2662 34.8505ZM37.5154 35.4397C37.8403 35.5616 38.1008 35.7129 38.3352 35.8894C38.8797 36.2993 39.2546 36.788 39.6021 37.2879C39.9882 37.8435 40.292 38.424 40.5787 39.0119C40.6355 38.978 40.6397 38.9374 40.652 38.898C40.798 38.4326 40.9696 37.9725 41.1894 37.5218C41.5791 36.7232 42.1006 35.9847 43.0501 35.4421C43.1456 35.3876 43.1378 35.3496 43.0673 35.2855C42.7665 35.0115 42.4419 34.7539 42.063 34.5343C41.7634 34.3606 41.4192 34.2728 41.0279 34.2791C40.1689 34.2929 39.3875 34.4919 38.6462 34.7843C38.2195 34.9526 37.8223 35.1496 37.5154 35.4397ZM48.8166 34.8634L48.7278 34.8762C48.7145 34.8731 48.7008 34.8667 48.6879 34.8674C47.5627 34.928 46.4462 35.0253 45.3626 35.264C44.2019 35.5195 43.3063 36.0161 42.6839 36.7611C42.1883 37.3543 41.9174 38.0102 41.6704 38.6698C41.4122 39.3595 41.2328 40.0624 41.0734 40.7667C40.8161 41.9034 40.6206 43.0465 40.4366 44.1904C40.3024 45.0248 40.1836 45.8606 40.0683 46.6965C39.9048 47.8838 39.7594 49.072 39.7482 50.2664C39.7384 51.3147 39.7711 52.3595 40.2243 53.3713C40.5215 54.0347 41.033 54.5801 41.8937 54.9435C42.7852 55.3201 43.7613 55.5236 44.7608 55.6767C46.2408 55.9034 47.7451 55.978 49.2545 55.9951C50.8771 56.0135 52.4981 55.9856 54.1076 55.8183C55.2878 55.6956 56.4452 55.5091 57.5403 55.1576C58.5358 54.8381 59.2624 54.3403 59.6575 53.6007C60.0498 52.8664 60.1842 52.1003 60.2299 51.3256C60.3332 49.5752 60.0959 47.8357 59.847 46.098C59.6643 44.8225 59.4659 43.5479 59.2259 42.2769C59.0791 41.4996 58.9232 40.7238 58.7185 39.9533C58.4807 39.0589 58.1984 38.1732 57.7101 37.3278C57.115 36.2974 56.114 35.5699 54.594 35.258C52.7054 34.8704 50.7718 34.7766 48.8166 34.8634ZM60.713 45.6412C60.7139 45.7428 60.718 45.8442 60.7548 45.9432C60.7948 46.215 60.8347 46.4868 60.8746 46.7586C60.8572 46.8102 60.866 46.8589 60.9005 46.9249C60.9287 46.8562 60.9901 46.8173 60.9707 46.7602C61.092 46.3346 61.2134 45.9091 61.3347 45.4835C61.36 45.4367 61.3838 45.3896 61.3706 45.3379C61.4412 45.2215 61.4572 45.0951 61.5008 44.9738C61.7646 44.2387 61.9446 43.4917 62.1141 42.7434C62.3008 41.9199 62.4617 41.0932 62.6691 40.2724C62.924 39.2631 63.0383 38.2483 62.9886 37.2248C62.9702 36.8462 62.9452 36.4651 62.8026 36.0715C62.6838 36.1377 62.5798 36.1874 62.4892 36.2475C62.0705 36.5251 61.7736 36.868 61.5076 37.2226C60.7499 38.2328 60.2583 39.3168 59.7991 40.4092C59.7757 40.4648 59.7892 40.5176 59.8024 40.5726C60.0401 41.5636 60.2127 42.561 60.3762 43.5592C60.4898 44.2531 60.6008 44.9472 60.713 45.6412ZM37.0726 36.3371C36.9967 36.5538 37.0006 36.7753 37 36.9961C36.9976 37.9992 37.1502 38.993 37.3339 39.9863C37.4933 40.8491 37.7149 41.7037 37.9306 42.5592C38.14 43.3891 38.3519 44.2185 38.58 45.0458C38.7969 45.8326 38.8752 46.6295 38.9576 47.4266C38.9636 47.4848 38.9495 47.5476 39.0064 47.6055C39.0173 47.5892 39.0313 47.5774 39.0329 47.5648C39.1805 46.398 39.3497 45.233 39.5415 44.0694C39.7282 42.9365 39.9064 41.8032 40.1695 40.6776C40.2039 40.5307 40.2465 40.387 40.1689 40.2328C40.0169 39.931 39.9024 39.6196 39.7563 39.316C39.3697 38.513 38.9579 37.7167 38.3409 36.9854C38.0909 36.6892 37.8323 36.3941 37.4321 36.1828C37.3412 36.1273 37.2424 36.0284 37.134 36.0632C37.0437 36.0923 37.0763 36.2135 37.0591 36.2945C37.0562 36.3079 37.0677 36.3228 37.0726 36.3371ZM61.1745 34.7432C60.3432 34.4576 59.4664 34.311 58.5437 34.3163C58.2676 34.3178 58.0211 34.3969 57.8139 34.5272C57.4434 34.7605 57.1857 35.053 56.9648 35.3646C56.9196 35.4284 56.9682 35.4544 57.0254 35.488C57.287 35.6422 57.5195 35.8164 57.7254 36.0091C58.4577 36.6945 58.8322 37.492 59.1409 38.3099C59.2352 38.5592 59.3192 38.8105 59.4188 39.0921C59.7213 38.4802 60.0137 37.8992 60.3969 37.3455C60.8628 36.6722 61.3643 36.0154 62.2377 35.5546L62.3511 35.5029L62.4493 35.4642C62.5404 35.4405 62.4853 35.4168 62.4495 35.393C62.4314 35.342 62.3844 35.3059 62.3282 35.2746C62.2818 35.2116 62.2077 35.1692 62.1229 35.1348C61.933 35.0077 61.712 34.915 61.4775 34.8373C61.3804 34.7995 61.2918 34.7479 61.1745 34.7432Z" fill="#1A1F24"/>
</svg>
