<svg width="20" height="20" viewBox="0 0 20 20" fill="none" xmlns="http://www.w3.org/2000/svg">
<path d="M15.9205 5.07953C15.5784 4.73729 15.1722 4.4658 14.7252 4.28057C14.2782 4.09534 13.799 4 13.3151 4C12.8312 4 12.3521 4.09534 11.905 4.28057C11.458 4.4658 11.0518 4.73729 10.7098 5.07953L9.99982 5.78947L9.28988 5.07953C8.5989 4.38855 7.66172 4.00036 6.68453 4.00036C5.70733 4.00036 4.77016 4.38855 4.07917 5.07953C3.38819 5.77051 3 6.70769 3 7.68488C3 8.66208 3.38819 9.59925 4.07917 10.2902L4.78911 11.0002L9.99982 16.2109L15.2105 11.0002L15.9205 10.2902C16.2627 9.94816 16.5342 9.54199 16.7194 9.09496C16.9047 8.64792 17 8.16877 17 7.68488C17 7.20099 16.9047 6.72184 16.7194 6.27481C16.5342 5.82777 16.2627 5.42161 15.9205 5.07953V5.07953Z" stroke="#666666" stroke-width="1.5" stroke-linecap="round" stroke-linejoin="round"/>
</svg>
