<svg width="20" height="20" viewBox="0 0 20 20" fill="none" xmlns="http://www.w3.org/2000/svg">
<path fill-rule="evenodd" clip-rule="evenodd" d="M0 10C0 4.47715 4.47715 0 10 0C15.5228 0 20 4.47715 20 10C20 15.5228 15.5228 20 10 20C4.47715 20 0 15.5228 0 10ZM7.06684 8.28288H4.80062V15.0919H7.06684V8.28288ZM7.21583 6.17612C7.20112 5.5085 6.7237 5 5.94844 5C5.17318 5 4.66634 5.5085 4.66634 6.17612C4.66634 6.82992 5.1582 7.35306 5.91902 7.35306H5.9335C6.7237 7.35306 7.21583 6.82992 7.21583 6.17612ZM15.2396 11.1866C15.2396 9.09514 14.1216 8.12175 12.6303 8.12175C11.4271 8.12175 10.8884 8.78263 10.5876 9.24626V8.28182H8.32113C8.351 8.92074 8.32113 15.0909 8.32113 15.0909H10.5876V11.2881C10.5876 11.0846 10.6023 10.8816 10.6622 10.7359C10.826 10.3294 11.199 9.90846 11.825 9.90846C12.6454 9.90846 12.9734 10.5328 12.9734 11.4478V15.0907H15.2395L15.2396 11.1866Z" fill="#353A40"/>
</svg>
