<svg width="24" height="24" viewBox="0 0 24 24" fill="none" xmlns="http://www.w3.org/2000/svg">
<path fill-rule="evenodd" clip-rule="evenodd" d="M0 12C0 5.37258 5.37258 0 12 0C18.6274 0 24 5.37258 24 12C24 18.6274 18.6274 24 12 24C5.37258 24 0 18.6274 0 12ZM8.47996 9.93896H5.7605V18.1098H8.47996V9.93896ZM8.65948 7.41135C8.64183 6.6102 8.06892 6 7.13861 6C6.2083 6 5.6001 6.6102 5.6001 7.41135C5.6001 8.1959 6.19033 8.82367 7.10331 8.82367H7.12069C8.06892 8.82367 8.65948 8.1959 8.65948 7.41135ZM18.2873 13.4249C18.2873 10.9151 16.9457 9.74707 15.1561 9.74707C13.7123 9.74707 13.0658 10.5401 12.7049 11.0965V9.93915H9.98511C10.021 10.7059 9.98511 18.11 9.98511 18.11H12.7049V13.5467C12.7049 13.3025 12.7225 13.0589 12.7945 12.8841C12.991 12.3962 13.4385 11.8911 14.1898 11.8911C15.1743 11.8911 15.5678 12.6404 15.5678 13.7384V18.1098H18.2871L18.2873 13.4249Z" fill="#202021"/>
</svg>
