<svg width="20" height="20" viewBox="0 0 20 20" fill="none" xmlns="http://www.w3.org/2000/svg">
<path d="M8.79883 10.604C9.05822 10.9508 9.38916 11.2377 9.76921 11.4454C10.1492 11.653 10.5695 11.7765 11.0015 11.8074C11.4334 11.8383 11.867 11.776 12.2727 11.6247C12.6785 11.4733 13.0469 11.2365 13.3531 10.9302L15.1651 9.11814C15.7153 8.54855 16.0197 7.78567 16.0128 6.99382C16.0059 6.20197 15.6883 5.4445 15.1283 4.88456C14.5684 4.32461 13.8109 4.007 13.0191 4.00011C12.2272 3.99323 11.4643 4.29764 10.8948 4.84777L9.85585 5.88063" stroke="#666666" stroke-width="1.5" stroke-linecap="round" stroke-linejoin="round"/>
<path d="M11.2141 9.39568C10.9547 9.0489 10.6237 8.76196 10.2437 8.55433C9.86365 8.34669 9.4434 8.22322 9.01144 8.19229C8.57949 8.16135 8.14593 8.22367 7.74018 8.37503C7.33443 8.52639 6.96597 8.76324 6.65981 9.06951L4.84777 10.8816C4.29764 11.4511 3.99323 12.214 4.00011 13.0059C4.007 13.7977 4.32461 14.5552 4.88456 15.1151C5.4445 15.6751 6.20197 15.9927 6.99382 15.9996C7.78567 16.0065 8.54855 15.7021 9.11814 15.1519L10.151 14.1191" stroke="#666666" stroke-width="1.5" stroke-linecap="round" stroke-linejoin="round"/>
</svg>
