<svg width="100" height="90" viewBox="0 0 100 90" fill="none"
    xmlns="http://www.w3.org/2000/svg">
    <path fill-rule="evenodd" clip-rule="evenodd" d="M35.6394 7.24127C38.0565 6.79883 40.3682 6.50301 42.7042 6.32495C43.2399 6.28404 43.613 6.19513 43.8446 5.8182C44.234 5.18352 44.9276 4.94043 45.8941 4.86807C48.4932 4.67369 51.0728 4.66021 53.6788 4.83946C54.9361 4.926 55.7736 5.24524 56.2561 6.07169C56.4463 6.39731 56.7726 6.5172 57.263 6.55172C58.2855 6.62361 59.3024 6.73404 60.3167 6.8693C61.6336 7.045 62.938 7.26775 64.305 7.49216C64.0686 6.69739 63.7019 6.02369 63.2894 5.36347C61.711 2.83893 59.1803 1.12052 55.4147 0.42412C52.586 -0.0989479 49.7234 -0.0533095 46.8556 0.112928C45.0601 0.216974 43.3467 0.573805 41.7475 1.18862C38.416 2.46933 36.7768 4.65548 35.6394 7.24127ZM1.98231 9.54683C3.23174 10.0236 4.2337 10.6157 5.13536 11.3062C7.22979 12.9101 8.67166 14.8224 10.008 16.7787C11.4932 18.9528 12.6616 21.2243 13.7641 23.525C13.9826 23.3923 13.9989 23.2331 14.0461 23.079C14.6075 21.2582 15.2676 19.4577 16.1132 17.6941C17.6117 14.5689 19.6176 11.6793 23.2695 9.55605C23.6368 9.34276 23.6069 9.19426 23.3356 8.94313C22.179 7.87098 20.9302 6.86315 19.473 6.00383C18.3206 5.32422 16.997 4.98039 15.4919 5.00498C12.1881 5.05914 9.18257 5.83783 6.33138 6.9821C4.69022 7.64066 3.16271 8.41155 1.98231 9.54683ZM45.4486 7.2914L45.107 7.34177C45.0559 7.32971 45.0031 7.30464 44.9536 7.30724C40.6257 7.54418 36.3317 7.9249 32.1637 8.85895C27.6997 9.85897 24.2552 11.8023 21.8612 14.7172C19.955 17.0386 18.9129 19.6052 17.9631 22.1863C16.9699 24.8851 16.2799 27.6355 15.6668 30.3913C14.6772 34.8395 13.9253 39.3125 13.2177 43.7884C12.7016 47.0536 12.2444 50.3239 11.8013 53.595C11.1721 58.2409 10.613 62.8903 10.5701 67.5641C10.5323 71.6661 10.658 75.7547 12.4011 79.7136C13.5443 82.3096 15.5115 84.4437 18.8218 85.8661C22.2509 87.3395 26.0051 88.1359 29.8491 88.7349C35.5417 89.6221 41.3271 89.9139 47.1327 89.9808C53.3734 90.0527 59.6082 89.9435 65.7986 89.2892C70.3379 88.8089 74.7892 88.0792 79.0012 86.7036C82.8299 85.4534 85.6244 83.5056 87.1441 80.6112C88.6531 77.7379 89.1699 74.7402 89.3457 71.7089C89.743 64.8596 88.8306 58.0526 87.8732 51.2532C87.1705 46.2619 86.4072 41.2745 85.4841 36.3009C84.9194 33.2594 84.32 30.2234 83.5326 27.2084C82.6182 23.7089 81.5323 20.243 79.6541 16.9348C77.3652 12.903 73.5153 10.0562 67.6694 8.83554C60.4053 7.31883 52.9683 6.95183 45.4486 7.2914ZM91.2037 49.4658C91.2073 49.8633 91.2233 50.2598 91.3646 50.6474C91.5183 51.7108 91.672 52.7744 91.8253 53.8381C91.7586 54.0398 91.7924 54.2304 91.925 54.4888C92.0334 54.2197 92.2695 54.0677 92.1949 53.8442C92.6615 52.179 93.1285 50.5138 93.5951 48.8486C93.6922 48.6653 93.784 48.4811 93.7332 48.2789C94.0044 47.8233 94.066 47.3288 94.2337 46.854C95.2486 43.9773 95.9409 41.0543 96.5928 38.1264C97.3108 34.904 97.9295 31.6689 98.7273 28.4572C99.7078 24.5079 100.147 20.5367 99.9562 16.5316C99.8856 15.0502 99.7892 13.5592 99.2408 12.0191C98.784 12.2778 98.3838 12.4724 98.0354 12.7075C96.4248 13.7938 95.2832 15.1355 94.26 16.5231C91.3457 20.4762 89.4551 24.7179 87.6889 28.9926C87.599 29.2101 87.6508 29.4166 87.7016 29.6317C88.6156 33.5096 89.2796 37.4125 89.9084 41.3185C90.3454 44.0339 90.7723 46.7499 91.2037 49.4658ZM0.279284 13.0582C-0.012803 13.9064 0.00217582 14.773 0.00010971 15.6368C-0.00922112 19.5622 0.577884 23.4507 1.28417 27.3378C1.89732 30.7141 2.74949 34.058 3.57919 37.4056C4.38446 40.6528 5.1995 43.8986 6.07674 47.1356C6.911 50.2147 7.2122 53.3327 7.52936 56.452C7.55248 56.6797 7.4981 56.9254 7.71692 57.1519C7.75893 57.0881 7.81266 57.042 7.81885 56.9928C8.38641 52.4271 9.03734 47.8684 9.77489 43.3152C10.4932 38.8822 11.1783 34.4472 12.1904 30.0427C12.3226 29.4679 12.4867 28.9058 12.1881 28.3023C11.6036 27.1212 11.163 25.9026 10.601 24.7149C9.11419 21.5727 7.53034 18.4565 5.15717 15.595C4.1956 14.4358 3.20113 13.2811 1.6619 12.4544C1.3125 12.2371 0.932491 11.8503 0.515364 11.9865C0.16792 12.1002 0.293612 12.5746 0.227184 12.8917C0.216113 12.9439 0.260398 13.0023 0.279284 13.0582ZM92.979 6.8213C89.7814 5.70375 86.4092 5.13008 82.8605 5.15065C81.7986 5.1568 80.8504 5.4661 80.0536 5.97616C78.6283 6.88893 77.6371 8.03343 76.7876 9.2529C76.6137 9.50238 76.8006 9.60406 77.0207 9.73577C78.0269 10.339 78.9211 11.0205 79.713 11.7746C82.5297 14.4566 83.9699 17.5775 85.1575 20.7779C85.5199 21.7536 85.8429 22.7368 86.2262 23.8385C87.3896 21.4443 88.5144 19.1709 89.9882 17.0041C91.7801 14.3694 93.7088 11.7994 97.0683 9.99636L97.5043 9.79394L97.882 9.64237C98.2324 9.54991 98.0204 9.45697 97.8826 9.36404C97.813 9.16423 97.6322 9.02306 97.4163 8.9008C97.2376 8.65393 96.9527 8.48816 96.6267 8.35338C95.8963 7.85632 95.0461 7.49358 94.1441 7.18948C93.771 7.04145 93.43 6.83974 92.979 6.8213Z" fill="#000000"/>
</svg>
