<svg width="13" height="12" viewBox="0 0 13 12" fill="none" xmlns="http://www.w3.org/2000/svg">
<path d="M9.07143 11.1424V9.99958C9.07143 9.39337 8.84566 8.81199 8.4438 8.38334C8.04194 7.95468 7.49689 7.71387 6.92857 7.71387H2.64286C2.07454 7.71387 1.52949 7.95468 1.12763 8.38334C0.725765 8.81199 0.5 9.39337 0.5 9.99958V11.1424" stroke="#666666" stroke-linecap="round" stroke-linejoin="round"/>
<path d="M4.86346 5.22057C6.06844 5.22057 7.04528 4.24374 7.04528 3.03875C7.04528 1.83377 6.06844 0.856934 4.86346 0.856934C3.65847 0.856934 2.68164 1.83377 2.68164 3.03875C2.68164 4.24374 3.65847 5.22057 4.86346 5.22057Z" stroke="#666666" stroke-linecap="round" stroke-linejoin="round"/>
<path d="M12.4994 11.1424V9.97427C12.4991 9.45661 12.3305 8.95374 12.0202 8.54462C11.7099 8.13549 11.2755 7.84328 10.7852 7.71387" stroke="#666666" stroke-linecap="round" stroke-linejoin="round"/>
<path d="M8.68164 0.928223C9.15096 1.04839 9.56693 1.32133 9.86399 1.70403C10.161 2.08672 10.3223 2.5574 10.3223 3.04186C10.3223 3.52632 10.161 3.99699 9.86399 4.37969C9.56693 4.76239 9.15096 5.03533 8.68164 5.1555" stroke="#666666" stroke-linecap="round" stroke-linejoin="round"/>
</svg>
