<svg width="20" height="20" viewBox="0 0 20 20" fill="none" xmlns="http://www.w3.org/2000/svg">
<path d="M13.1111 10C13.1111 9.17488 12.7833 8.38356 12.1999 7.80011C11.6164 7.21667 10.8251 6.88889 10 6.88889C9.17488 6.88889 8.38356 7.21667 7.80011 7.80011C7.21667 8.38356 6.88889 9.17488 6.88889 10C6.88889 10.8251 7.21667 11.6164 7.80011 12.1999C8.38356 12.7833 9.17488 13.1111 10 13.1111C10.8251 13.1111 11.6164 12.7833 12.1999 12.1999C12.7833 11.6164 13.1111 10.8251 13.1111 10ZM13.1111 10V11.1667C13.1111 11.6824 13.316 12.1769 13.6806 12.5416C14.0453 12.9062 14.5399 13.1111 15.0556 13.1111C15.5713 13.1111 16.0658 12.9062 16.4305 12.5416C16.7951 12.1769 17 11.6824 17 11.1667V10C17 8.61553 16.5895 7.26215 15.8203 6.11101C15.0511 4.95987 13.9579 4.06266 12.6788 3.53285C11.3997 3.00303 9.99224 2.86441 8.63437 3.13451C7.2765 3.4046 6.02922 4.07129 5.05025 5.05025C4.07129 6.02922 3.4046 7.2765 3.13451 8.63437C2.86441 9.99224 3.00303 11.3997 3.53285 12.6788C4.06266 13.9579 4.95987 15.0511 6.11101 15.8203C7.26215 16.5895 8.61553 17 10 17C11.229 17.0012 12.4365 16.6781 13.5 16.062" stroke="#999999" stroke-width="1.5" stroke-linecap="round" stroke-linejoin="round"/>
</svg>
