<svg width="24" height="25" viewBox="0 0 24 25" fill="none" xmlns="http://www.w3.org/2000/svg">
<path d="M15.5996 20.1765V18.5765C15.5996 17.7278 15.2835 16.9138 14.7209 16.3137C14.1583 15.7136 13.3953 15.3765 12.5996 15.3765H6.59961C5.80396 15.3765 5.0409 15.7136 4.47829 16.3137C3.91568 16.9138 3.59961 17.7278 3.59961 18.5765V20.1765" stroke="#D4D4D4" stroke-width="1.5" stroke-linecap="round" stroke-linejoin="round"/>
<path d="M9.70884 11.8855C11.3958 11.8855 12.7634 10.5179 12.7634 8.83091C12.7634 7.14393 11.3958 5.77637 9.70884 5.77637C8.02186 5.77637 6.6543 7.14393 6.6543 8.83091C6.6543 10.5179 8.02186 11.8855 9.70884 11.8855Z" stroke="#D4D4D4" stroke-width="1.5" stroke-linecap="round" stroke-linejoin="round"/>
<path d="M20.4 20.1765V18.541C20.3995 17.8163 20.1635 17.1123 19.7291 16.5395C19.2947 15.9667 18.6865 15.5576 18 15.3765" stroke="#D4D4D4" stroke-width="1.5" stroke-linecap="round" stroke-linejoin="round"/>
<path d="M15.0537 5.87549C15.7108 6.04372 16.2931 6.42584 16.709 6.96162C17.1249 7.49739 17.3506 8.15634 17.3506 8.83458C17.3506 9.51282 17.1249 10.1718 16.709 10.7075C16.2931 11.2433 15.7108 11.6254 15.0537 11.7937" stroke="#D4D4D4" stroke-width="1.5" stroke-linecap="round" stroke-linejoin="round"/>
</svg>
