<svg width="32" height="32" viewBox="0 0 32 32" fill="none" xmlns="http://www.w3.org/2000/svg">
<g opacity="0.2">
<circle cx="16" cy="16" r="16" fill="#101011"/>
<circle cx="16" cy="16" r="16" fill="#4595D0"/>
</g>
<path d="M19.1111 16C19.1111 15.1749 18.7833 14.3836 18.1999 13.8001C17.6164 13.2167 16.8251 12.8889 16 12.8889C15.1749 12.8889 14.3836 13.2167 13.8001 13.8001C13.2167 14.3836 12.8889 15.1749 12.8889 16C12.8889 16.8251 13.2167 17.6164 13.8001 18.1999C14.3836 18.7833 15.1749 19.1111 16 19.1111C16.8251 19.1111 17.6164 18.7833 18.1999 18.1999C18.7833 17.6164 19.1111 16.8251 19.1111 16ZM19.1111 16V17.1667C19.1111 17.6824 19.316 18.1769 19.6806 18.5416C20.0453 18.9062 20.5399 19.1111 21.0556 19.1111C21.5713 19.1111 22.0658 18.9062 22.4305 18.5416C22.7951 18.1769 23 17.6824 23 17.1667V16C23 14.6155 22.5895 13.2622 21.8203 12.111C21.0511 10.9599 19.9579 10.0627 18.6788 9.53285C17.3997 9.00303 15.9922 8.86441 14.6344 9.13451C13.2765 9.4046 12.0292 10.0713 11.0503 11.0503C10.0713 12.0292 9.4046 13.2765 9.13451 14.6344C8.86441 15.9922 9.00303 17.3997 9.53285 18.6788C10.0627 19.9579 10.9599 21.0511 12.111 21.8203C13.2622 22.5895 14.6155 23 16 23C17.229 23.0012 18.4365 22.6781 19.5 22.062" stroke="#4595D0" stroke-width="1.5" stroke-linecap="round" stroke-linejoin="round"/>
</svg>
