<svg width="18" height="18" viewBox="0 0 18 18" fill="none" xmlns="http://www.w3.org/2000/svg">
<path fill-rule="evenodd" clip-rule="evenodd" d="M1.7998 4.49922C1.7998 3.50511 2.60569 2.69922 3.5998 2.69922H10.7998C11.7939 2.69922 12.5998 3.50511 12.5998 4.49922V13.4992C12.5998 14.4933 13.4057 15.2992 14.3998 15.2992H3.5998C2.60569 15.2992 1.7998 14.4933 1.7998 13.4992V4.49922ZM4.4998 5.39922H9.8998V8.99922H4.4998V5.39922ZM9.8998 10.7992H4.4998V12.5992H9.8998V10.7992Z" fill="#999999"/>
<path d="M13.4998 6.29922H14.3998C15.3939 6.29922 16.1998 7.10511 16.1998 8.09922V13.0492C16.1998 13.7948 15.5954 14.3992 14.8498 14.3992C14.1042 14.3992 13.4998 13.7948 13.4998 13.0492V6.29922Z" fill="#999999"/>
</svg>
