<svg width="29" height="24" viewBox="0 0 29 24" fill="none" xmlns="http://www.w3.org/2000/svg">
<path d="M17.75 17.5556H24L22.2437 15.9944C22.0079 15.7848 21.8208 15.5358 21.6932 15.2619C21.5656 14.9879 21.4999 14.6943 21.5 14.3978V10.8889C21.5002 9.50993 21.0195 8.16482 20.124 7.03876C19.2286 5.91271 17.9625 5.06107 16.5 4.60111V4.22222C16.5 3.63285 16.2366 3.06762 15.7678 2.65087C15.2989 2.23413 14.663 2 14 2C13.337 2 12.7011 2.23413 12.2322 2.65087C11.7634 3.06762 11.5 3.63285 11.5 4.22222V4.60111C8.5875 5.51667 6.5 7.98667 6.5 10.8889V14.3989C6.5 14.9967 6.2325 15.5711 5.75625 15.9944L4 17.5556H10.25H17.75ZM17.75 17.5556V18.6667C17.75 19.5507 17.3549 20.3986 16.6517 21.0237C15.9484 21.6488 14.9946 22 14 22C13.0054 22 12.0516 21.6488 11.3483 21.0237C10.6451 20.3986 10.25 19.5507 10.25 18.6667V17.5556H17.75ZM17.75 17.5556H10.25H17.75Z" fill="#999999"/>
<path d="M17.75 17.5556H10.25M17.75 17.5556H24L22.2437 15.9944C22.0079 15.7848 21.8208 15.5358 21.6932 15.2619C21.5656 14.9879 21.4999 14.6943 21.5 14.3978V10.8889C21.5002 9.50993 21.0195 8.16482 20.124 7.03876C19.2286 5.91271 17.9625 5.06107 16.5 4.60111V4.22222C16.5 3.63285 16.2366 3.06762 15.7678 2.65087C15.2989 2.23413 14.663 2 14 2C13.337 2 12.7011 2.23413 12.2322 2.65087C11.7634 3.06762 11.5 3.63285 11.5 4.22222V4.60111C8.5875 5.51667 6.5 7.98667 6.5 10.8889V14.3989C6.5 14.9967 6.2325 15.5711 5.75625 15.9944L4 17.5556H10.25H17.75ZM17.75 17.5556V18.6667C17.75 19.5507 17.3549 20.3986 16.6517 21.0237C15.9484 21.6488 14.9946 22 14 22C13.0054 22 12.0516 21.6488 11.3483 21.0237C10.6451 20.3986 10.25 19.5507 10.25 18.6667V17.5556H17.75Z" stroke="#171718" stroke-width="1.5" stroke-linecap="round" stroke-linejoin="round"/>
</svg>
