<svg width="22" height="22" viewBox="0 0 22 22" fill="none" xmlns="http://www.w3.org/2000/svg">
<path d="M14.75 16.5556H7.25M14.75 16.5556H21L19.2437 14.9944C19.0079 14.7848 18.8208 14.5358 18.6932 14.2619C18.5656 13.9879 18.4999 13.6943 18.5 13.3978V9.88889C18.5002 8.50993 18.0195 7.16482 17.124 6.03876C16.2286 4.91271 14.9625 4.06107 13.5 3.60111V3.22222C13.5 2.63285 13.2366 2.06762 12.7678 1.65087C12.2989 1.23413 11.663 1 11 1C10.337 1 9.70107 1.23413 9.23223 1.65087C8.76339 2.06762 8.5 2.63285 8.5 3.22222V3.60111C5.5875 4.51667 3.5 6.98667 3.5 9.88889V13.3989C3.5 13.9967 3.2325 14.5711 2.75625 14.9944L1 16.5556H7.25H14.75ZM14.75 16.5556V17.6667C14.75 18.5507 14.3549 19.3986 13.6517 20.0237C12.9484 20.6488 11.9946 21 11 21C10.0054 21 9.05161 20.6488 8.34835 20.0237C7.64509 19.3986 7.25 18.5507 7.25 17.6667V16.5556H14.75Z" stroke="#999999" stroke-width="1.5" stroke-linecap="round" stroke-linejoin="round"/>
</svg>
