<svg width="32" height="32" viewBox="0 0 32 32" fill="none" xmlns="http://www.w3.org/2000/svg">
<g opacity="0.2">
<circle cx="16" cy="16" r="16" fill="#101011"/>
<circle cx="16" cy="16" r="16" fill="#27AE60"/>
</g>
<path d="M14 11C13.4477 11 13 11.4477 13 12C13 12.5523 13.4477 13 14 13L19.5858 13L18.2929 14.2929C17.9024 14.6834 17.9024 15.3166 18.2929 15.7071C18.6834 16.0976 19.3166 16.0976 19.7071 15.7071L22.7071 12.7071C22.8946 12.5196 23 12.2652 23 12C23 11.7348 22.8946 11.4804 22.7071 11.2929L19.7071 8.29289C19.3166 7.90237 18.6834 7.90237 18.2929 8.29289C17.9024 8.68342 17.9024 9.31658 18.2929 9.70711L19.5858 11L14 11Z" fill="#27AE60"/>
<path d="M18 21C18.5523 21 19 20.5523 19 20C19 19.4477 18.5523 19 18 19L12.4142 19L13.7071 17.7071C14.0976 17.3166 14.0976 16.6834 13.7071 16.2929C13.3166 15.9024 12.6834 15.9024 12.2929 16.2929L9.29289 19.2929C9.10536 19.4804 9 19.7348 9 20C9 20.2652 9.10536 20.5196 9.29289 20.7071L12.2929 23.7071C12.6834 24.0976 13.3166 24.0976 13.7071 23.7071C14.0976 23.3166 14.0976 22.6834 13.7071 22.2929L12.4142 21L18 21Z" fill="#27AE60"/>
</svg>
