<svg width="36" height="36" viewBox="0 0 36 36" fill="none" xmlns="http://www.w3.org/2000/svg">
<rect width="36" height="36" rx="18" fill="#2C2C2C"/>
<path d="M21.7096 22.5829V21.5647C21.7096 21.0246 21.5085 20.5067 21.1504 20.1248C20.7924 19.7429 20.3068 19.5283 19.8005 19.5283H15.9823C15.476 19.5283 14.9904 19.7429 14.6324 20.1248C14.2744 20.5067 14.0732 21.0246 14.0732 21.5647V22.5829" stroke="#2F80ED" stroke-width="1.5" stroke-linecap="round" stroke-linejoin="round"/>
<path d="M17.9604 17.3065C19.0339 17.3065 19.9042 16.4363 19.9042 15.3627C19.9042 14.2892 19.0339 13.4189 17.9604 13.4189C16.8869 13.4189 16.0166 14.2892 16.0166 15.3627C16.0166 16.4363 16.8869 17.3065 17.9604 17.3065Z" stroke="#2F80ED" stroke-width="1.5" stroke-linecap="round" stroke-linejoin="round"/>
</svg>
