<svg width="32" height="32" viewBox="0 0 32 32" fill="none" xmlns="http://www.w3.org/2000/svg">
<g opacity="0.2">
<circle cx="16" cy="16" r="16" fill="#101011"/>
<circle cx="16" cy="16" r="16" fill="#4595D0"/>
</g>
<path d="M19.5 12.5L12.5 12.5M14.875 16L12.5 16M17.25 19.5L12.5 19.5M9 21.25L9 10.75C9 10.2859 9.18438 9.84075 9.51256 9.51256C9.84075 9.18437 10.2859 9 10.75 9L21.25 9C21.7141 9 22.1592 9.18438 22.4874 9.51256C22.8156 9.84075 23 10.2859 23 10.75L23 21.25C23 21.7141 22.8156 22.1592 22.4874 22.4874C22.1592 22.8156 21.7141 23 21.25 23L10.75 23C10.2859 23 9.84075 22.8156 9.51256 22.4874C9.18438 22.1592 9 21.7141 9 21.25Z" stroke="#4595D0" stroke-width="1.5" stroke-linecap="round" stroke-linejoin="round"/>
</svg>
