<svg width="20" height="20" viewBox="0 0 20 20" fill="none" xmlns="http://www.w3.org/2000/svg">
<path d="M13.5 6.5L6.5 6.5M8.875 10L6.5 10M11.25 13.5L6.5 13.5M3 15.25L3 4.75C3 4.28587 3.18438 3.84075 3.51256 3.51256C3.84075 3.18437 4.28587 3 4.75 3L15.25 3C15.7141 3 16.1592 3.18438 16.4874 3.51256C16.8156 3.84075 17 4.28587 17 4.75L17 15.25C17 15.7141 16.8156 16.1592 16.4874 16.4874C16.1592 16.8156 15.7141 17 15.25 17L4.75 17C4.28587 17 3.84075 16.8156 3.51256 16.4874C3.18438 16.1592 3 15.7141 3 15.25Z" stroke="#999999" stroke-width="1.5" stroke-linecap="round" stroke-linejoin="round"/>
</svg>
