<svg width="10" height="12" viewBox="0 0 10 12" fill="none" xmlns="http://www.w3.org/2000/svg">
<path fill-rule="evenodd" clip-rule="evenodd" d="M0.800049 1.80002C0.800049 1.02683 1.42685 0.400024 2.20005 0.400024H5.4101C5.7814 0.400024 6.1375 0.547524 6.40005 0.810075L8.79 3.20002C9.05255 3.46258 9.20005 3.81867 9.20005 4.18997V10.2C9.20005 10.9732 8.57325 11.6 7.80005 11.6H2.20005C1.42685 11.6 0.800049 10.9732 0.800049 10.2V1.80002ZM2.20005 6.00002C2.20005 5.61343 2.51345 5.30002 2.90005 5.30002H7.10005C7.48665 5.30002 7.80005 5.61343 7.80005 6.00002C7.80005 6.38662 7.48665 6.70002 7.10005 6.70002H2.90005C2.51345 6.70002 2.20005 6.38662 2.20005 6.00002ZM2.90005 8.10003C2.51345 8.10003 2.20005 8.41343 2.20005 8.80002C2.20005 9.18662 2.51345 9.50002 2.90005 9.50002H7.10005C7.48665 9.50002 7.80005 9.18662 7.80005 8.80002C7.80005 8.41343 7.48665 8.10003 7.10005 8.10003H2.90005Z" fill="#999999"/>
</svg>
