<svg width="20" height="20" viewBox="0 0 20 20" fill="none" xmlns="http://www.w3.org/2000/svg">
<path d="M0.246094 8.11328C0.246094 9.1875 0.447917 10.1966 0.851562 11.1406C1.25521 12.0781 1.8151 12.9049 2.53125 13.6211C3.2474 14.3372 4.07422 14.8971 5.01172 15.3008C5.95573 15.7044 6.96484 15.9062 8.03906 15.9062C8.88542 15.9062 9.69271 15.776 10.4609 15.5156C11.2292 15.2552 11.9323 14.8971 12.5703 14.4414L17.375 19.2559C17.4922 19.3665 17.6191 19.4479 17.7559 19.5C17.8991 19.5586 18.0488 19.5879 18.2051 19.5879C18.4264 19.5879 18.6217 19.5358 18.791 19.4316C18.9603 19.334 19.0905 19.1973 19.1816 19.0215C19.2793 18.8457 19.3281 18.6504 19.3281 18.4355C19.3281 18.2793 19.2988 18.1328 19.2402 17.9961C19.1882 17.8594 19.11 17.7389 19.0059 17.6348L14.2305 12.8301C14.7318 12.179 15.1224 11.4531 15.4023 10.6523C15.6888 9.85156 15.832 9.00521 15.832 8.11328C15.832 7.03906 15.6302 6.0332 15.2266 5.0957C14.8229 4.15169 14.263 3.32161 13.5469 2.60547C12.8307 1.88932 12.0007 1.32943 11.0566 0.925781C10.1191 0.522135 9.11328 0.320312 8.03906 0.320312C6.96484 0.320312 5.95573 0.522135 5.01172 0.925781C4.07422 1.32943 3.2474 1.88932 2.53125 2.60547C1.8151 3.32161 1.25521 4.15169 0.851562 5.0957C0.447917 6.0332 0.246094 7.03906 0.246094 8.11328ZM1.91602 8.11328C1.91602 7.26693 2.07227 6.47591 2.38477 5.74023C2.70378 4.99805 3.14323 4.34701 3.70312 3.78711C4.26953 3.2207 4.92057 2.78125 5.65625 2.46875C6.39844 2.14974 7.19271 1.99023 8.03906 1.99023C8.88542 1.99023 9.67643 2.14974 10.4121 2.46875C11.1543 2.78125 11.8053 3.2207 12.3652 3.78711C12.9251 4.34701 13.3646 4.99805 13.6836 5.74023C14.0026 6.47591 14.1621 7.26693 14.1621 8.11328C14.1621 8.95964 14.0026 9.75391 13.6836 10.4961C13.3646 11.2318 12.9251 11.8796 12.3652 12.4395C11.8053 12.9993 11.1543 13.4388 10.4121 13.7578C9.67643 14.0768 8.88542 14.2363 8.03906 14.2363C7.19271 14.2363 6.39844 14.0768 5.65625 13.7578C4.92057 13.4388 4.26953 12.9993 3.70312 12.4395C3.14323 11.8796 2.70378 11.2318 2.38477 10.4961C2.07227 9.75391 1.91602 8.95964 1.91602 8.11328Z" fill="#999999"/>
</svg>
