<svg width="14" height="14" viewBox="0 0 14 14" fill="none" xmlns="http://www.w3.org/2000/svg">
<path fill-rule="evenodd" clip-rule="evenodd" d="M2.2001 0.600098C1.31644 0.600098 0.600098 1.31644 0.600098 2.2001V11.0001C0.600098 12.3256 1.67461 13.4001 3.0001 13.4001C4.32558 13.4001 5.4001 12.3256 5.4001 11.0001V2.2001C5.4001 1.31644 4.68375 0.600098 3.8001 0.600098H2.2001ZM3.0001 11.8001C3.44193 11.8001 3.8001 11.4419 3.8001 11.0001C3.8001 10.5583 3.44193 10.2001 3.0001 10.2001C2.55827 10.2001 2.2001 10.5583 2.2001 11.0001C2.2001 11.4419 2.55827 11.8001 3.0001 11.8001Z" fill="#4595D0"/>
<path d="M7.0001 10.3941L10.9197 6.47456C11.5445 5.84972 11.5445 4.83666 10.9197 4.21182L9.78831 3.08045C9.16347 2.45561 8.15041 2.45561 7.52557 3.08045L7.0001 3.60592V10.3941Z" fill="#4595D0"/>
<path d="M11.8001 13.4001H6.25693L11.0569 8.6001H11.8001C12.6838 8.6001 13.4001 9.31644 13.4001 10.2001V11.8001C13.4001 12.6838 12.6838 13.4001 11.8001 13.4001Z" fill="#4595D0"/>
</svg>
