<svg width="24" height="24" viewBox="0 0 24 24" fill="none" xmlns="http://www.w3.org/2000/svg">
<path d="M11.9999 14.291C13.2651 14.291 14.2908 13.2654 14.2908 12.0001C14.2908 10.7349 13.2651 9.70923 11.9999 9.70923C10.7347 9.70923 9.70898 10.7349 9.70898 12.0001C9.70898 13.2654 10.7347 14.291 11.9999 14.291Z" stroke="#2C3136" stroke-width="1.5" stroke-linecap="round" stroke-linejoin="round"/>
<path d="M17.651 14.291C17.5494 14.5213 17.519 14.7768 17.5639 15.0245C17.6089 15.2723 17.727 15.5009 17.903 15.6808L17.9488 15.7266C18.0908 15.8685 18.2035 16.0369 18.2803 16.2223C18.3572 16.4077 18.3968 16.6065 18.3968 16.8072C18.3968 17.0079 18.3572 17.2066 18.2803 17.392C18.2035 17.5775 18.0908 17.7459 17.9488 17.8877C17.807 18.0297 17.6385 18.1424 17.4531 18.2192C17.2677 18.2961 17.069 18.3357 16.8683 18.3357C16.6676 18.3357 16.4688 18.2961 16.2834 18.2192C16.098 18.1424 15.9296 18.0297 15.7877 17.8877L15.7419 17.8419C15.5619 17.6659 15.3334 17.5478 15.0856 17.5029C14.8379 17.4579 14.5824 17.4883 14.3521 17.5899C14.1262 17.6867 13.9336 17.8474 13.7979 18.0523C13.6623 18.2572 13.5894 18.4973 13.5885 18.743V18.8728C13.5885 19.2779 13.4276 19.6664 13.1411 19.9528C12.8547 20.2392 12.4662 20.4001 12.0612 20.4001C11.6561 20.4001 11.2677 20.2392 10.9812 19.9528C10.6948 19.6664 10.5339 19.2779 10.5339 18.8728V18.8041C10.528 18.5513 10.4462 18.3062 10.2991 18.1006C10.152 17.8949 9.94648 17.7383 9.70919 17.651C9.47886 17.5494 9.22337 17.519 8.97565 17.5639C8.72793 17.6089 8.49934 17.727 8.31937 17.903L8.27355 17.9488C8.13171 18.0908 7.96327 18.2035 7.77786 18.2803C7.59245 18.3572 7.39371 18.3968 7.19301 18.3968C6.9923 18.3968 6.79356 18.3572 6.60815 18.2803C6.42274 18.2035 6.2543 18.0908 6.11246 17.9488C5.97046 17.807 5.85781 17.6385 5.78095 17.4531C5.70409 17.2677 5.66453 17.069 5.66453 16.8683C5.66453 16.6676 5.70409 16.4688 5.78095 16.2834C5.85781 16.098 5.97046 15.9296 6.11246 15.7877L6.15828 15.7419C6.33433 15.5619 6.45242 15.3334 6.49734 15.0856C6.54225 14.8379 6.51193 14.5824 6.41028 14.3521C6.31348 14.1262 6.15275 13.9336 5.94787 13.7979C5.74299 13.6623 5.50292 13.5894 5.25719 13.5885H5.12737C4.72231 13.5885 4.33384 13.4276 4.04743 13.1411C3.76101 12.8547 3.6001 12.4662 3.6001 12.0612C3.6001 11.6561 3.76101 11.2677 4.04743 10.9812C4.33384 10.6948 4.72231 10.5339 5.12737 10.5339H5.1961C5.44886 10.528 5.69399 10.4462 5.89964 10.2991C6.10528 10.152 6.26192 9.94648 6.34919 9.70919C6.45084 9.47886 6.48116 9.22337 6.43625 8.97565C6.39133 8.72793 6.27323 8.49934 6.09719 8.31937L6.05137 8.27355C5.90937 8.13171 5.79672 7.96327 5.71986 7.77786C5.643 7.59245 5.60344 7.39371 5.60344 7.19301C5.60344 6.9923 5.643 6.79356 5.71986 6.60815C5.79672 6.42274 5.90937 6.2543 6.05137 6.11246C6.19321 5.97046 6.36165 5.85781 6.54706 5.78095C6.73247 5.70409 6.93121 5.66453 7.13192 5.66453C7.33262 5.66453 7.53136 5.70409 7.71677 5.78095C7.90218 5.85781 8.07062 5.97046 8.21246 6.11246L8.25828 6.15828C8.43825 6.33433 8.66684 6.45242 8.91456 6.49734C9.16228 6.54225 9.41777 6.51193 9.6481 6.41028H9.70919C9.93505 6.31348 10.1277 6.15275 10.2634 5.94787C10.399 5.74299 10.4718 5.50292 10.4728 5.25719V5.12737C10.4728 4.72231 10.6337 4.33384 10.9202 4.04743C11.2066 3.76101 11.595 3.6001 12.0001 3.6001C12.4052 3.6001 12.7936 3.76101 13.08 4.04743C13.3665 4.33384 13.5274 4.72231 13.5274 5.12737V5.1961C13.5284 5.44183 13.6012 5.6819 13.7368 5.88678C13.8725 6.09166 14.0651 6.25239 14.291 6.34919C14.5213 6.45084 14.7768 6.48116 15.0245 6.43625C15.2723 6.39133 15.5009 6.27323 15.6808 6.09719L15.7266 6.05137C15.8685 5.90937 16.0369 5.79672 16.2223 5.71986C16.4077 5.643 16.6065 5.60344 16.8072 5.60344C17.0079 5.60344 17.2066 5.643 17.392 5.71986C17.5775 5.79672 17.7459 5.90937 17.8877 6.05137C18.0297 6.19321 18.1424 6.36165 18.2192 6.54706C18.2961 6.73247 18.3357 6.93121 18.3357 7.13192C18.3357 7.33262 18.2961 7.53136 18.2192 7.71677C18.1424 7.90218 18.0297 8.07062 17.8877 8.21246L17.8419 8.25828C17.6659 8.43825 17.5478 8.66684 17.5029 8.91456C17.4579 9.16228 17.4883 9.41777 17.5899 9.6481V9.70919C17.6867 9.93505 17.8474 10.1277 18.0523 10.2634C18.2572 10.399 18.4973 10.4718 18.743 10.4728H18.8728C19.2779 10.4728 19.6664 10.6337 19.9528 10.9202C20.2392 11.2066 20.4001 11.595 20.4001 12.0001C20.4001 12.4052 20.2392 12.7936 19.9528 13.08C19.6664 13.3665 19.2779 13.5274 18.8728 13.5274H18.8041C18.5584 13.5284 18.3183 13.6012 18.1134 13.7368C17.9085 13.8725 17.7478 14.0651 17.651 14.291V14.291Z" stroke="#2C3136" stroke-width="1.5" stroke-linecap="round" stroke-linejoin="round"/>
</svg>
