<svg width="24" height="25" viewBox="0 0 24 25" fill="none" xmlns="http://www.w3.org/2000/svg">
<path d="M13.9433 8.38099C13.7814 8.54623 13.6906 8.76839 13.6906 8.99978C13.6906 9.23116 13.7814 9.45332 13.9433 9.61856L15.3577 11.0329C15.5229 11.1949 15.7451 11.2856 15.9765 11.2856C16.2079 11.2856 16.43 11.1949 16.5953 11.0329L19.9279 7.70033C20.3724 8.6826 20.507 9.777 20.3137 10.8377C20.1204 11.8984 19.6085 12.875 18.8461 13.6374C18.0838 14.3998 17.1072 14.9117 16.0465 15.1049C14.9858 15.2982 13.8914 15.1636 12.9091 14.7191L6.80078 20.8274C6.44911 21.1791 5.97215 21.3767 5.47481 21.3767C4.97748 21.3767 4.50051 21.1791 4.14884 20.8274C3.79717 20.4758 3.59961 19.9988 3.59961 19.5015C3.59961 19.0041 3.79717 18.5272 4.14884 18.1755L10.2571 12.0672C9.81265 11.0849 9.67806 9.99051 9.87132 8.92982C10.0646 7.86912 10.5765 6.89251 11.3389 6.13013C12.1013 5.36776 13.0779 4.85583 14.1386 4.66257C15.1993 4.46931 16.2937 4.60389 17.2759 5.04839L13.9522 8.37215L13.9433 8.38099Z" stroke="#D4D4D4" stroke-width="1.5" stroke-linecap="round" stroke-linejoin="round"/>
</svg>
