<svg width="17" height="20" viewBox="0 0 17 20" fill="none" xmlns="http://www.w3.org/2000/svg">
<path d="M13.3999 6.63961C14.7916 6.63961 15.9199 5.51137 15.9199 4.11961C15.9199 2.72785 14.7916 1.59961 13.3999 1.59961C12.0081 1.59961 10.8799 2.72785 10.8799 4.11961C10.8799 5.51137 12.0081 6.63961 13.3999 6.63961Z" stroke="#6FCF97" stroke-width="1.5" stroke-linecap="round" stroke-linejoin="round"/>
<path d="M3.3198 12.5195C4.71156 12.5195 5.8398 11.3912 5.8398 9.99949C5.8398 8.60773 4.71156 7.47949 3.3198 7.47949C1.92805 7.47949 0.799805 8.60773 0.799805 9.99949C0.799805 11.3912 1.92805 12.5195 3.3198 12.5195Z" stroke="#6FCF97" stroke-width="1.5" stroke-linecap="round" stroke-linejoin="round"/>
<path d="M13.3999 18.3994C14.7916 18.3994 15.9199 17.2711 15.9199 15.8794C15.9199 14.4876 14.7916 13.3594 13.3999 13.3594C12.0081 13.3594 10.8799 14.4876 10.8799 15.8794C10.8799 17.2711 12.0081 18.3994 13.3999 18.3994Z" stroke="#6FCF97" stroke-width="1.5" stroke-linecap="round" stroke-linejoin="round"/>
<path d="M5.49561 11.2676L11.2328 14.6108" stroke="#6FCF97" stroke-width="1.5" stroke-linecap="round" stroke-linejoin="round"/>
<path d="M11.2244 5.3877L5.49561 8.7309" stroke="#6FCF97" stroke-width="1.5" stroke-linecap="round" stroke-linejoin="round"/>
</svg>
