<svg width="24" height="24" viewBox="0 0 24 24" fill="none" xmlns="http://www.w3.org/2000/svg">
<path d="M11.9996 8.26676C10.4531 8.26676 9.19961 9.1021 9.19961 10.1334C9.19961 11.1648 10.4531 12.0001 11.9996 12.0001C13.5461 12.0001 14.7996 12.8354 14.7996 13.8668C14.7996 14.8981 13.5461 15.7334 11.9996 15.7334V8.26676ZM11.9996 8.26676C13.0356 8.26676 13.9409 8.64196 14.4253 9.2001L11.9996 8.26676ZM11.9996 8.26676V7.33343V8.26676ZM11.9996 8.26676V15.7334V8.26676ZM11.9996 15.7334V16.6668V15.7334ZM11.9996 15.7334C10.9636 15.7334 10.0583 15.3582 9.57388 14.8001L11.9996 15.7334ZM20.3996 12.0001C20.3996 13.1032 20.1823 14.1955 19.7602 15.2146C19.3381 16.2338 18.7193 17.1598 17.9393 17.9398C17.1593 18.7198 16.2333 19.3385 15.2141 19.7607C14.195 20.1828 13.1027 20.4001 11.9996 20.4001C10.8965 20.4001 9.8042 20.1828 8.78507 19.7607C7.76593 19.3385 6.83992 18.7198 6.05991 17.9398C5.2799 17.1598 4.66116 16.2338 4.23902 15.2146C3.81688 14.1955 3.59961 13.1032 3.59961 12.0001C3.59961 9.77228 4.48461 7.63571 6.05991 6.0604C7.63522 4.4851 9.77179 3.6001 11.9996 3.6001C14.2274 3.6001 16.364 4.4851 17.9393 6.0604C19.5146 7.63571 20.3996 9.77228 20.3996 12.0001Z" stroke="#D4D4D4" stroke-width="1.5" stroke-linecap="round" stroke-linejoin="round"/>
</svg>
