<svg width="32" height="32" viewBox="0 0 32 32" fill="none" xmlns="http://www.w3.org/2000/svg">
<g opacity="0.2">
<circle cx="16" cy="16" r="16" fill="#101011"/>
<circle cx="16" cy="16" r="16" fill="#4595D0"/>
</g>
<path d="M13 9C12.4477 9 12 9.44772 12 10C12 10.5523 12.4477 11 13 11H19C19.5523 11 20 10.5523 20 10C20 9.44772 19.5523 9 19 9H13Z" fill="#4595D0"/>
<path d="M10 13C10 12.4477 10.4477 12 11 12H21C21.5523 12 22 12.4477 22 13C22 13.5523 21.5523 14 21 14H11C10.4477 14 10 13.5523 10 13Z" fill="#4595D0"/>
<path d="M8 17C8 15.8954 8.89543 15 10 15H22C23.1046 15 24 15.8954 24 17V21C24 22.1046 23.1046 23 22 23H10C8.89543 23 8 22.1046 8 21V17Z" fill="#4595D0"/>
</svg>
