<svg width="172" height="172" viewBox="0 0 172 172" fill="none" xmlns="http://www.w3.org/2000/svg">
<circle cx="86" cy="86" r="86" fill="#2A2A2E"/>
<path d="M69.8823 149.424C69.4432 149.424 69.0102 149.32 68.6078 149.111C67.937 148.767 67.443 148.183 67.2113 147.464L35.2445 48.54C34.7688 47.0527 35.5799 45.4485 37.0557 44.9629L107.087 21.976C108.563 21.4905 110.149 22.3079 110.637 23.7953L142.597 122.719C142.829 123.438 142.774 124.206 142.433 124.882C142.091 125.558 141.512 126.056 140.798 126.296L70.7665 149.283C70.4738 149.381 70.175 149.424 69.8823 149.424ZM107.953 22.1481C107.697 22.1481 107.435 22.185 107.179 22.2711L37.1471 45.258C35.8299 45.6882 35.1103 47.1203 35.5372 48.4478L67.504 147.371C67.7113 148.011 68.1565 148.533 68.7541 148.84C69.3517 149.148 70.0286 149.203 70.6689 148.994L140.701 126.007C141.341 125.798 141.859 125.349 142.158 124.747C142.463 124.145 142.512 123.463 142.305 122.817L110.338 23.8937C109.996 22.8304 109.008 22.1481 107.953 22.1481Z" fill="#9893A2"/>
<path d="M137.196 124.145L70.7426 145.064C69.4165 145.481 68.0025 144.736 67.5811 143.397L37.9812 49.3663C37.5597 48.0276 38.2917 46.6066 39.6178 46.1891L106.071 25.2703C107.397 24.8528 108.811 25.5983 109.233 26.9371L138.833 120.968C139.259 122.305 138.522 123.727 137.196 124.145Z" fill="#D0D0D0"/>
<path d="M118.986 138.89H45.3385C43.8688 138.89 42.6797 137.691 42.6797 136.21V32.1729C42.6797 30.6917 43.8688 29.4932 45.3385 29.4932H118.986C120.456 29.4932 121.645 30.6917 121.645 32.1729V136.21C121.651 137.691 120.456 138.89 118.986 138.89Z" fill="#EDEDED"/>
<g opacity="0.3">
<path d="M56.1374 129.88H50.9844C50.216 129.88 49.5879 129.253 49.5879 128.472V123.279C49.5879 122.504 50.2099 121.871 50.9844 121.871H56.1374C56.9057 121.871 57.5338 122.498 57.5338 123.279V128.472C57.5338 129.253 56.9057 129.88 56.1374 129.88Z" fill="#9893A2"/>
</g>
<path d="M118.986 139.043H45.3376C43.7887 139.043 42.5264 137.771 42.5264 136.209V32.1723C42.5264 30.6111 43.7887 29.3389 45.3376 29.3389H118.986C120.535 29.3389 121.797 30.6111 121.797 32.1723V136.209C121.803 137.771 120.541 139.043 118.986 139.043ZM45.3376 29.64C43.9533 29.64 42.8313 30.7771 42.8313 32.1661V136.203C42.8313 137.599 43.9594 138.729 45.3376 138.729H118.986C120.37 138.729 121.492 137.592 121.492 136.203V32.1723C121.492 30.7771 120.364 29.6462 118.986 29.6462H45.3376V29.64Z" fill="#9893A2"/>
<g opacity="0.3">
<path d="M87.6264 58.7964C90.6437 55.7553 90.6437 50.8247 87.6264 47.7837C84.6091 44.7426 79.717 44.7426 76.6997 47.7837C73.6824 50.8247 73.6824 55.7553 76.6997 58.7964C79.717 61.8375 84.6091 61.8375 87.6264 58.7964Z" fill="#9893A2"/>
</g>
<g opacity="0.3">
<path d="M94.8795 75.1095H69.45C68.145 75.1095 67.2181 73.8557 67.5596 72.5896C69.011 67.2116 74.9994 63.1797 82.1648 63.1797C89.3302 63.1797 95.3247 67.2116 96.77 72.5896C97.1115 73.8557 96.1845 75.1095 94.8795 75.1095Z" fill="#9893A2"/>
</g>
<g opacity="0.29">
<path d="M103.186 83.9441H99.3377C98.7462 83.9441 98.2705 83.4647 98.2705 82.8686C98.2705 82.2724 98.7462 81.793 99.3377 81.793H103.186C103.777 81.793 104.253 82.2724 104.253 82.8686C104.253 83.4647 103.777 83.9441 103.186 83.9441Z" fill="#9893A2"/>
</g>
<g opacity="0.29">
<path d="M94.9405 83.9441H78.201C77.6094 83.9441 77.1338 83.4647 77.1338 82.8686C77.1338 82.2724 77.6094 81.793 78.201 81.793H94.9344C95.526 81.793 96.0016 82.2724 96.0016 82.8686C96.0016 83.4647 95.526 83.9441 94.9405 83.9441Z" fill="#9893A2"/>
</g>
<g opacity="0.29">
<path d="M91.1788 89.5525H74.4393C73.8477 89.5525 73.3721 89.0731 73.3721 88.477C73.3721 87.8808 73.8477 87.4014 74.4393 87.4014H91.1727C91.7643 87.4014 92.2399 87.8808 92.2399 88.477C92.2399 89.0731 91.7642 89.5525 91.1788 89.5525Z" fill="#9893A2"/>
</g>
<g opacity="0.29">
<path d="M82.5128 103.001H65.7732C65.1817 103.001 64.7061 102.521 64.7061 101.925C64.7061 101.329 65.1817 100.85 65.7732 100.85H82.5067C83.0982 100.85 83.5739 101.329 83.5739 101.925C83.5739 102.521 83.0982 103.001 82.5128 103.001Z" fill="#9893A2"/>
</g>
<g opacity="0.29">
<path d="M74.8483 99.0076H65.7742C65.1827 99.0076 64.707 98.5282 64.707 97.932C64.707 97.3359 65.1827 96.8564 65.7742 96.8564H74.8483C75.4399 96.8564 75.9155 97.3359 75.9155 97.932C75.9155 98.5282 75.4338 99.0076 74.8483 99.0076Z" fill="#9893A2"/>
</g>
<g opacity="0.29">
<path d="M75.9877 112.731H65.7732C65.1817 112.731 64.7061 112.252 64.7061 111.656C64.7061 111.059 65.1817 110.58 65.7732 110.58H75.9877C76.5793 110.58 77.0549 111.059 77.0549 111.656C77.0549 112.252 76.5793 112.731 75.9877 112.731Z" fill="#9893A2"/>
</g>
<g opacity="0.29">
<path d="M90.3978 116.445H65.7732C65.1817 116.445 64.7061 115.966 64.7061 115.37C64.7061 114.773 65.1817 114.294 65.7732 114.294H90.3978C90.9893 114.294 91.465 114.773 91.465 115.37C91.465 115.966 90.9832 116.445 90.3978 116.445Z" fill="#9893A2"/>
</g>
<g opacity="0.29">
<path d="M82.5118 129.349H65.7723C65.1807 129.349 64.7051 128.87 64.7051 128.274C64.7051 127.678 65.1807 127.198 65.7723 127.198H82.5057C83.0973 127.198 83.5729 127.678 83.5729 128.274C83.5729 128.87 83.0973 129.349 82.5118 129.349Z" fill="#9893A2"/>
</g>
<g opacity="0.29">
<path d="M72.8646 83.9441H58.6863C58.0948 83.9441 57.6191 83.4647 57.6191 82.8686C57.6191 82.2724 58.0948 81.793 58.6863 81.793H72.8646C73.4562 81.793 73.9318 82.2724 73.9318 82.8686C73.9318 83.4647 73.4501 83.9441 72.8646 83.9441Z" fill="#9893A2"/>
</g>
<g opacity="0.3">
<path d="M55.8327 102.651H50.6797C49.9113 102.651 49.2832 102.024 49.2832 101.244V96.0501C49.2832 95.2756 49.9052 94.6426 50.6797 94.6426H55.8327C56.601 94.6426 57.2292 95.2695 57.2292 96.0501V101.244C57.2292 102.018 56.601 102.651 55.8327 102.651Z" fill="#9893A2"/>
</g>
<g opacity="0.3">
<path d="M55.8327 115.962H50.6797C49.9113 115.962 49.2832 115.335 49.2832 114.554V109.361C49.2832 108.586 49.9052 107.953 50.6797 107.953H55.8327C56.601 107.953 57.2292 108.58 57.2292 109.361V114.554C57.2292 115.335 56.601 115.962 55.8327 115.962Z" fill="#9893A2"/>
</g>
<g opacity="0.2">
<path d="M119.108 59.8682V133.734C119.108 135.135 117.98 136.272 116.59 136.272H42.6797V136.217C84.0926 134.705 110.083 109.075 119.108 59.8682Z" fill="#9893A2"/>
</g>
<g opacity="0.3">
<path d="M63.9617 64L60.4308 74.7867C60.2845 75.2353 59.8698 75.5242 59.4185 75.5242C59.3087 75.5242 59.199 75.5058 59.0831 75.4689C58.5221 75.2784 58.2172 74.676 58.4062 74.1106L58.7782 72.9674C57.9062 72.5187 57.3634 71.6152 57.3634 70.6503C57.3634 70.386 57.4061 70.1094 57.4976 69.8389C57.9001 68.6036 59.138 67.8844 60.3698 68.0873L61.931 63.3239C62.2359 62.3897 61.7297 61.3756 60.7967 61.0621L59.4307 60.6073L44.6121 105.764C44.423 106.341 44.0876 106.864 43.6364 107.276L42.6729 108.136V70.0356L48.3442 52.7647C48.6247 51.9043 49.2284 51.2405 50.0883 50.8287L51.1981 47.4359C51.6494 46.0592 52.6007 44.9467 53.8813 44.2952C55.1681 43.6437 56.6255 43.5331 57.9854 43.9879C60.8028 44.9221 62.3335 47.9953 61.4065 50.8287L60.3332 54.123C60.6565 54.6885 60.8211 55.2847 60.8211 55.8747C60.8211 56.2005 60.7662 56.5324 60.6625 56.8581L60.1015 58.5668L61.4675 59.0154C62.4615 59.3412 63.2604 60.048 63.736 60.9884C64.2117 61.9288 64.291 62.9982 63.9617 64Z" fill="#9893A2"/>
</g>
<path d="M45.3996 65.1239C45.2838 64.7797 45.2411 64.4109 45.2838 64.0483L46.5034 53.8701L54.6445 60.0225C54.9433 60.2438 55.1812 60.5326 55.3458 60.8768C55.9922 63.3783 46.6864 67.3672 45.3996 65.1239Z" fill="#F3F1A5"/>
<path d="M47.0699 65.9285C46.2284 65.9285 45.5637 65.7134 45.271 65.1971L45.2588 65.1726C45.1307 64.8038 45.088 64.4104 45.1368 64.0294L46.387 53.5869L54.7354 59.8991C55.0586 60.1449 55.3086 60.4461 55.4794 60.8087C55.8575 62.2592 53.4121 63.9863 50.9789 64.9943C49.6434 65.5475 48.192 65.9285 47.0699 65.9285ZM45.5393 65.0558C46.0637 65.9347 48.2469 65.7933 50.8691 64.7054C53.2535 63.7159 55.5038 62.0994 55.1989 60.9132C55.0586 60.6243 54.833 60.3601 54.5524 60.1449L46.6248 54.1524L45.4356 64.0662C45.399 64.3981 45.4295 64.7423 45.5393 65.0558Z" fill="#9893A2"/>
<path d="M45.9258 58.7315L46.5051 53.876L50.3897 56.8139C49.1029 57.6436 47.4198 58.3689 45.9258 58.7315Z" fill="#5F5A57"/>
<path d="M45.749 58.928L46.3893 53.5869L50.6581 56.8137L50.4751 56.9305C49.164 57.7848 47.4809 58.51 45.9625 58.8727L45.749 58.928ZM46.6272 54.1524L46.1027 58.5223C47.4565 58.172 48.9323 57.5389 50.1214 56.7952L46.6272 54.1524Z" fill="#9893A2"/>
<path d="M47.0646 66.6273C45.8999 66.6273 44.9729 66.2646 44.5826 65.3427C44.5339 65.2198 44.5095 65.0907 44.5156 64.9616C44.5461 64.5007 44.9424 64.1503 45.3937 64.1811C45.7291 64.2056 45.9974 64.4208 46.1133 64.7096C46.3389 65.0723 48.1196 65.1522 50.7967 64.0028C52.0042 63.4865 53.0957 62.8289 53.7909 62.202C54.3886 61.6672 54.5959 61.2432 54.5349 61.0711C54.4069 60.776 54.4495 60.4196 54.6813 60.1676C54.9923 59.8295 55.5106 59.7988 55.846 60.1122L55.8521 60.1184C55.9375 60.1983 56.0107 60.2966 56.0534 60.4073C56.8827 62.3679 54.2178 64.3409 51.4431 65.5394C49.9796 66.1663 48.3696 66.6273 47.0646 66.6273Z" fill="#9893A2"/>
<path d="M56.9862 74.5962C56.8765 74.5962 56.7606 74.5777 56.6508 74.5408C56.0898 74.3565 55.7849 73.748 55.9739 73.1825L59.4987 62.402C59.6451 61.9472 59.6085 61.4617 59.395 61.0376C59.1816 60.6135 58.8157 60.2939 58.3644 60.1402L54.8824 58.9847C54.3213 58.8004 54.0164 58.1919 54.2055 57.6264C54.3884 57.061 54.9921 56.7537 55.5532 56.9442L59.0352 58.0997C60.0293 58.4316 60.8342 59.1261 61.3038 60.0665C61.7733 61.0068 61.8526 62.0763 61.5233 63.0781L57.9986 73.8586C57.8522 74.3134 57.4314 74.5962 56.9862 74.5962Z" fill="#9893A2"/>
<path d="M56.6135 53.692L48.4297 50.9753L49.7774 46.8512C50.5214 44.571 52.9607 43.3356 55.217 44.0854C57.4794 44.8353 58.7052 47.2938 57.9612 49.5679L56.6135 53.692Z" fill="#FC8E5E"/>
<g opacity="0.3">
<path d="M55.217 44.0791C54.845 43.9562 54.4669 43.8886 54.0888 43.8701C55.4731 44.9703 56.1073 46.8572 55.5219 48.6396L54.1742 52.7699L48.4602 50.8707L48.4297 50.969L56.6135 53.6918L57.9612 49.5677C58.7052 47.2874 57.4794 44.8289 55.217 44.0791Z" fill="#9893A2"/>
</g>
<g opacity="0.51">
<path d="M57.2113 45.4602C55.1258 45.0607 53.0097 46.2777 52.3267 48.3674L51.1802 51.883L48.4238 50.9672L49.7715 46.837C50.5155 44.5629 52.9487 43.3213 55.2111 44.0712C56.0344 44.3478 56.7113 44.8395 57.2113 45.4602Z" fill="white"/>
</g>
<path d="M56.6136 54.7676C56.5039 54.7676 56.388 54.7491 56.2782 54.7123L48.0944 51.9956C47.8261 51.9034 47.6005 51.7129 47.4785 51.4609C47.3505 51.2089 47.3322 50.9077 47.4175 50.6373L48.7653 46.5132C49.6922 43.6736 52.7413 42.1248 55.5525 43.0652C58.3699 43.9994 59.9067 47.0725 58.9736 49.9059L57.6259 54.03C57.5345 54.3005 57.3454 54.5279 57.0954 54.6508C56.9429 54.7246 56.7783 54.7676 56.6136 54.7676ZM49.7776 50.287L55.9367 52.3337L56.949 49.2298C57.5101 47.5212 56.5831 45.665 54.8817 45.1057C53.1864 44.5403 51.3448 45.4745 50.7899 47.1893L49.7776 50.287Z" fill="#9893A2"/>
<path d="M40.8608 105.113C40.7511 105.273 40.6291 105.415 40.4827 105.55L32.86 112.372L30.811 102.305C30.7622 102.09 30.75 101.868 30.7622 101.647C30.7622 101.635 30.7683 101.629 30.7683 101.629C30.7744 101.53 30.7866 101.432 30.811 101.334C30.8293 101.235 30.8537 101.143 30.8842 101.051L46.9224 52.1637C48.1787 48.3162 58.4846 51.7335 57.2223 55.5872L41.1718 104.493C41.1474 104.579 41.117 104.653 41.0804 104.732L41.0743 104.751C41.0133 104.874 40.9401 105.003 40.8608 105.113Z" fill="#FE783D"/>
<path d="M40.8608 105.116C40.7511 105.276 40.6291 105.417 40.4827 105.552L32.86 112.375L30.811 102.307C30.7622 102.092 30.75 101.871 30.7622 101.65C30.7622 101.637 30.7683 101.631 30.7683 101.631C31.7074 98.8469 41.7939 102.319 40.8608 105.116Z" fill="#FC8E5E"/>
<g opacity="0.3">
<path d="M57.2166 55.5951L41.1661 104.501C41.1417 104.581 41.1051 104.66 41.0746 104.734L41.0685 104.753C40.9344 105.054 40.7331 105.324 40.4831 105.545L32.8604 112.374L33.2811 110.598L38.2938 103.075C38.5439 102.847 38.0621 103.124 38.1963 102.823L38.2024 102.804C38.239 102.731 38.2695 102.651 38.2938 102.571L54.3443 53.6652C54.6248 52.817 54.3382 51.9873 53.7101 51.2559C55.9786 52.1839 57.7898 53.8434 57.2166 55.5951Z" fill="#9893A2"/>
</g>
<path d="M32.8607 113.458C32.751 113.458 32.6351 113.439 32.5253 113.402C32.1655 113.279 31.8911 112.972 31.8179 112.597L29.7628 102.53C29.6409 101.939 29.6714 101.313 29.8665 100.723L45.9109 51.8355C46.2951 50.6554 47.2952 49.8379 48.7222 49.5429C51.4542 48.9713 55.4729 50.305 57.3328 52.4009C58.3024 53.4949 58.6256 54.7488 58.2354 55.9288L42.1788 104.841C41.9897 105.418 41.6482 105.941 41.197 106.352L33.5681 113.187C33.373 113.359 33.1169 113.458 32.8607 113.458ZM50.0882 51.5589C49.7528 51.5589 49.4417 51.5896 49.149 51.6511C48.1428 51.86 47.9843 52.3517 47.9294 52.5115L31.885 101.399C31.8118 101.626 31.7935 101.866 31.8423 102.087L33.5254 110.335L39.77 104.742C39.9468 104.582 40.0688 104.386 40.1481 104.158L56.2047 55.2589C56.2595 55.0991 56.4181 54.6074 55.7351 53.833C54.5825 52.5423 52.0396 51.5589 50.0882 51.5589Z" fill="#9893A2"/>
<path d="M54.9478 63.3341C54.8441 63.3341 54.7344 63.3157 54.6246 63.285C54.0879 63.1067 53.7952 62.5228 53.9721 61.982C54.027 61.816 53.8196 61.4165 53.2342 60.9433C52.5207 60.3655 51.4169 59.8062 50.2034 59.4006C47.5141 58.5094 45.7822 58.8105 45.6541 59.2223C45.4773 59.7632 44.8979 60.0582 44.3613 59.88C43.8247 59.7017 43.532 59.1178 43.7088 58.577C43.9161 57.9377 44.593 56.856 46.7762 56.7638C47.941 56.7208 49.3862 56.9544 50.8437 57.4399C52.3012 57.9255 53.6062 58.5954 54.5148 59.3329C56.2223 60.7158 56.1247 61.9881 55.9174 62.6273C55.7771 63.0576 55.3808 63.3341 54.9478 63.3341Z" fill="#9893A2"/>
<path d="M56.7045 72.1963L56.8814 72.2578L58.4974 67.3162L58.3206 67.2547C56.9668 66.8061 55.5093 67.5498 55.058 68.9142C54.619 70.2787 55.3507 71.7476 56.7045 72.1963Z" fill="#9893A2"/>
<path d="M40.8617 106.149C40.752 106.149 40.6422 106.13 40.5324 106.093C39.9958 105.909 39.7092 105.325 39.8921 104.784C39.9287 104.68 39.8189 104.465 39.6177 104.231C38.3249 102.737 34.2147 101.324 32.2876 101.705C31.9888 101.766 31.7693 101.871 31.7327 101.975C31.5498 102.516 30.9704 102.799 30.4338 102.621C29.8972 102.436 29.6105 101.852 29.7935 101.312C29.9947 100.722 30.5192 99.9594 31.8913 99.6828C34.5379 99.1604 39.386 100.826 41.1605 102.873C42.0814 103.93 42.0326 104.858 41.8313 105.454C41.685 105.878 41.2886 106.149 40.8617 106.149Z" fill="#9893A2"/>
<path d="M32.0078 116.294C31.898 116.294 31.7822 116.276 31.6724 116.239C31.1114 116.055 30.8065 115.446 30.9955 114.881L32.0627 111.629C32.2456 111.064 32.8494 110.757 33.4104 110.947C33.9714 111.132 34.2763 111.74 34.0873 112.305L33.0201 115.557C32.8738 116.005 32.4591 116.294 32.0078 116.294Z" fill="#9893A2"/>
</svg>
