<svg width="20" height="20" viewBox="0 0 20 20" fill="none" xmlns="http://www.w3.org/2000/svg">
<path d="M13 16V14.6667C13 13.9594 12.719 13.2811 12.219 12.781C11.7189 12.281 11.0406 12 10.3333 12H5.66667C4.95942 12 4.28115 12.281 3.78105 12.781C3.28095 13.2811 3 13.9594 3 14.6667V16" stroke="#666666" stroke-width="1.5" stroke-linecap="round" stroke-linejoin="round"/>
<path d="M7.77275 9.09091C9.17857 9.09091 10.3182 7.95127 10.3182 6.54545C10.3182 5.13964 9.17857 4 7.77275 4C6.36693 4 5.22729 5.13964 5.22729 6.54545C5.22729 7.95127 6.36693 9.09091 7.77275 9.09091Z" stroke="#666666" stroke-width="1.5" stroke-linecap="round" stroke-linejoin="round"/>
<path d="M15.0909 7.18188V11.0001" stroke="#666666" stroke-width="1.5" stroke-linecap="round" stroke-linejoin="round"/>
<path d="M16.9999 9.09082H13.1818" stroke="#666666" stroke-width="1.5" stroke-linecap="round" stroke-linejoin="round"/>
</svg>
