<svg width="20" height="16" viewBox="0 0 20 16" fill="none" xmlns="http://www.w3.org/2000/svg">
<path d="M13.6001 15.1994V13.5994C13.6001 12.7507 13.284 11.9368 12.7214 11.3367C12.1588 10.7366 11.3957 10.3994 10.6001 10.3994H4.6001C3.80445 10.3994 3.04139 10.7366 2.47878 11.3367C1.91617 11.9368 1.6001 12.7507 1.6001 13.5994V15.1994" stroke="#F2994A" stroke-width="1.5" stroke-linecap="round" stroke-linejoin="round"/>
<path d="M7.70933 6.9089C9.39631 6.9089 10.7639 5.54133 10.7639 3.85435C10.7639 2.16737 9.39631 0.799805 7.70933 0.799805C6.02235 0.799805 4.65479 2.16737 4.65479 3.85435C4.65479 5.54133 6.02235 6.9089 7.70933 6.9089Z" stroke="#F2994A" stroke-width="1.5" stroke-linecap="round" stroke-linejoin="round"/>
<path d="M18.4 15.1994V13.564C18.3995 12.8393 18.1635 12.1352 17.7291 11.5625C17.2947 10.9897 16.6865 10.5806 16 10.3994" stroke="#F2994A" stroke-width="1.5" stroke-linecap="round" stroke-linejoin="round"/>
<path d="M13.0547 0.899414C13.7117 1.06764 14.2941 1.44977 14.71 1.98554C15.1259 2.52132 15.3516 3.18027 15.3516 3.8585C15.3516 4.53674 15.1259 5.19569 14.71 5.73147C14.2941 6.26724 13.7117 6.64937 13.0547 6.8176" stroke="#F2994A" stroke-width="1.5" stroke-linecap="round" stroke-linejoin="round"/>
</svg>
