<svg width="20" height="20" viewBox="0 0 20 20" fill="none" xmlns="http://www.w3.org/2000/svg">
<path d="M9.26201 4.47597H4.39156C4.02249 4.47597 3.66855 4.62258 3.40758 4.88355C3.14661 5.14452 3 5.49847 3 5.86753V15.6084C3 15.9775 3.14661 16.3315 3.40758 16.5924C3.66855 16.8534 4.02249 17 4.39156 17H14.1325C14.5015 17 14.8555 16.8534 15.1164 16.5924C15.3774 16.3315 15.524 15.9775 15.524 15.6084V10.738" stroke="#666666" stroke-width="1.5" stroke-linecap="round" stroke-linejoin="round"/>
<path d="M14.4804 3.4323C14.7572 3.1555 15.1326 3 15.524 3C15.9155 3 16.2909 3.1555 16.5677 3.4323C16.8445 3.7091 17 4.08452 17 4.47597C17 4.86742 16.8445 5.24284 16.5677 5.51964L9.9578 12.1295L7.17468 12.8253L7.87046 10.0422L14.4804 3.4323Z" stroke="#666666" stroke-width="1.5" stroke-linecap="round" stroke-linejoin="round"/>
</svg>
