<svg width="20" height="20" viewBox="0 0 20 20" fill="none" xmlns="http://www.w3.org/2000/svg">
<rect width="20" height="20" rx="10" fill="#99908C" fill-opacity="0.1"/>
<path d="M8.42144 10H11.7548H8.42144ZM8.42144 12.2222H11.7548H8.42144ZM12.8659 15H7.31033C7.01564 15 6.73303 14.8829 6.52466 14.6746C6.31628 14.4662 6.19922 14.1836 6.19922 13.8889V6.11111C6.19922 5.81643 6.31628 5.53381 6.52466 5.32544C6.73303 5.11706 7.01564 5 7.31033 5H10.4137C10.561 5.00003 10.7023 5.05858 10.8064 5.16278L13.8142 8.17056C13.9184 8.27472 13.977 8.416 13.977 8.56333V13.8889C13.977 14.1836 13.8599 14.4662 13.6516 14.6746C13.4432 14.8829 13.1606 15 12.8659 15Z" stroke="#99908C" stroke-width="1.5" stroke-linecap="round" stroke-linejoin="round"/>
</svg>
