<svg width="20" height="20" viewBox="0 0 20 20" fill="none" xmlns="http://www.w3.org/2000/svg">
<rect width="20" height="20" rx="10" fill="#D7A88E" fill-opacity="0.1"/>
<path d="M13.668 9.5C13.668 10.4283 13.2992 11.3185 12.6428 11.9749C11.9865 12.6313 11.0962 13 10.168 13M10.168 13C9.23971 13 8.34947 12.6313 7.69309 11.9749C7.03672 11.3185 6.66797 10.4283 6.66797 9.5M10.168 13V15M10.168 15H8.16797M10.168 15H12.168M10.168 11C9.77014 11 9.38861 10.842 9.10731 10.5607C8.826 10.2794 8.66797 9.89782 8.66797 9.5V6.5C8.66797 6.10218 8.826 5.72064 9.10731 5.43934C9.38861 5.15804 9.77014 5 10.168 5C10.5658 5 10.9473 5.15804 11.2286 5.43934C11.5099 5.72064 11.668 6.10218 11.668 6.5V9.5C11.668 9.89782 11.5099 10.2794 11.2286 10.5607C10.9473 10.842 10.5658 11 10.168 11Z" stroke="#D7A88E" stroke-width="1.5" stroke-linecap="round" stroke-linejoin="round"/>
</svg>
