<svg width="20" height="20" viewBox="0 0 20 20" fill="none" xmlns="http://www.w3.org/2000/svg">
<rect width="20" height="20" rx="10" fill="#8C7BB2" fill-opacity="0.1"/>
<path d="M6.11111 10V13.8889C6.11111 14.1836 6.22817 14.4662 6.43655 14.6746C6.64492 14.8829 6.92754 15 7.22222 15H12.7778C13.0725 15 13.3551 14.8829 13.5635 14.6746C13.7718 14.4662 13.8889 14.1836 13.8889 13.8889V10M10 7.77778V15V7.77778ZM10 7.77778V6.66667C10 6.44691 10.0652 6.23209 10.1873 6.04937C10.3093 5.86665 10.4829 5.72423 10.6859 5.64013C10.8889 5.55604 11.1123 5.53403 11.3279 5.57691C11.5434 5.61978 11.7414 5.7256 11.8968 5.88099C12.0522 6.03638 12.158 6.23437 12.2009 6.4499C12.2437 6.66543 12.2217 6.88884 12.1376 7.09187C12.0535 7.2949 11.9111 7.46843 11.7284 7.59052C11.5457 7.71261 11.3309 7.77778 11.1111 7.77778H10ZM10 7.77778V6.38889C10 6.11419 9.91854 5.84567 9.76593 5.61726C9.61332 5.38886 9.3964 5.21085 9.14262 5.10572C8.88883 5.0006 8.60957 4.9731 8.34015 5.02669C8.07073 5.08028 7.82326 5.21256 7.62902 5.4068C7.43478 5.60104 7.3025 5.84851 7.24891 6.11793C7.19532 6.38735 7.22282 6.66661 7.32795 6.92039C7.43307 7.17418 7.61108 7.3911 7.83949 7.54371C8.06789 7.69632 8.33642 7.77778 8.61111 7.77778H10ZM6.11111 10H13.8889H6.11111ZM6.11111 10C5.81643 10 5.53381 9.88294 5.32544 9.67456C5.11706 9.46619 5 9.18357 5 8.88889C5 8.5942 5.11706 8.31159 5.32544 8.10322C5.53381 7.89484 5.81643 7.77778 6.11111 7.77778H13.8889C14.1836 7.77778 14.4662 7.89484 14.6746 8.10322C14.8829 8.31159 15 8.5942 15 8.88889C15 9.18357 14.8829 9.46619 14.6746 9.67456C14.4662 9.88294 14.1836 10 13.8889 10H6.11111Z" stroke="#8C7BB2" stroke-width="1.5" stroke-linecap="round" stroke-linejoin="round"/>
</svg>
