<svg width="20" height="20" viewBox="0 0 20 20" fill="none" xmlns="http://www.w3.org/2000/svg">
<rect width="20" height="20" rx="10" fill="#A1788B" fill-opacity="0.1"/>
<path d="M8.32909 13.5732C5.95117 14.2866 5.95117 12.3843 5 12.1465M11.6582 15V13.1595C11.676 12.9327 11.6454 12.7047 11.5683 12.4907C11.4912 12.2767 11.3695 12.0815 11.2111 11.9182C12.7045 11.7518 14.2739 11.1858 14.2739 8.58913C14.2738 7.92514 14.0183 7.2866 13.5605 6.80569C13.7773 6.22477 13.762 5.58266 13.5177 5.01274C13.5177 5.01274 12.9565 4.84629 11.6582 5.71661C10.5681 5.42118 9.41912 5.42118 8.32909 5.71661C7.03074 4.84629 6.46955 5.01274 6.46955 5.01274C6.22528 5.58266 6.20995 6.22477 6.42675 6.80569C5.9655 7.29017 5.70982 7.93447 5.71338 8.6034C5.71338 11.1811 7.2828 11.747 8.77613 11.9325C8.61967 12.0942 8.499 12.287 8.42197 12.4984C8.34495 12.7098 8.3133 12.935 8.32909 13.1595V15" stroke="#A1788B" stroke-width="1.5" stroke-linecap="round" stroke-linejoin="round"/>
</svg>
