<svg width="20" height="20" viewBox="0 0 20 20" fill="none" xmlns="http://www.w3.org/2000/svg">
<rect width="20" height="20" rx="10" fill="#7A88C8" fill-opacity="0.1"/>
<path d="M11.4193 9.61111L9.64319 8.42667C9.55944 8.3708 9.46209 8.33873 9.36153 8.33389C9.26097 8.32906 9.16099 8.35164 9.07227 8.39922C8.98355 8.44681 8.90943 8.5176 8.85783 8.60405C8.80623 8.69049 8.77908 8.78933 8.7793 8.89V11.2583C8.77928 11.3589 8.80657 11.4576 8.85826 11.5439C8.90994 11.6302 8.98408 11.7008 9.07276 11.7483C9.16145 11.7957 9.26135 11.8182 9.36181 11.8133C9.46227 11.8084 9.55952 11.7764 9.64319 11.7206L11.4193 10.5361C11.4954 10.4854 11.5578 10.4166 11.6009 10.336C11.6441 10.2554 11.6666 10.1653 11.6666 10.0739C11.6666 9.98244 11.6441 9.8924 11.6009 9.81177C11.5578 9.73114 11.4954 9.6624 11.4193 9.61167V9.61111Z" stroke="#7A88C8" stroke-width="1.5" stroke-linecap="round" stroke-linejoin="round"/>
<path d="M15 10C15 10.6566 14.8707 11.3068 14.6194 11.9134C14.3681 12.52 13.9998 13.0712 13.5355 13.5355C13.0712 13.9998 12.52 14.3681 11.9134 14.6194C11.3068 14.8707 10.6566 15 10 15C9.34339 15 8.69321 14.8707 8.08658 14.6194C7.47996 14.3681 6.92876 13.9998 6.46447 13.5355C6.00017 13.0712 5.63188 12.52 5.3806 11.9134C5.12933 11.3068 5 10.6566 5 10C5 8.67392 5.52678 7.40215 6.46447 6.46447C7.40215 5.52678 8.67392 5 10 5C11.3261 5 12.5979 5.52678 13.5355 6.46447C14.4732 7.40215 15 8.67392 15 10Z" stroke="#7A88C8" stroke-width="1.5" stroke-linecap="round" stroke-linejoin="round"/>
</svg>
