<svg width="24" height="24" viewBox="0 0 24 24" fill="none" xmlns="http://www.w3.org/2000/svg">
<path fill-rule="evenodd" clip-rule="evenodd" d="M12 24C18.6274 24 24 18.6274 24 12C24 5.37258 18.6274 0 12 0C5.37258 0 0 5.37258 0 12C0 18.6274 5.37258 24 12 24ZM12.6944 8.16667H14.8611C14.9569 8.16667 15.0487 8.12862 15.1165 8.0609C15.1842 7.99318 15.2222 7.90133 15.2222 7.80556V6.36111C15.2222 6.26534 15.1842 6.17349 15.1165 6.10577C15.0487 6.03805 14.9569 6 14.8611 6H12.3333C11.5672 6 10.8324 6.30436 10.2906 6.84614C9.74881 7.38791 9.44444 8.12271 9.44444 8.88889V11.0556H8.36111C8.26534 11.0556 8.17349 11.0936 8.10577 11.1613C8.03805 11.229 8 11.3209 8 11.4167V12.8611C8 12.9569 8.03805 13.0487 8.10577 13.1165C8.17349 13.1842 8.26534 13.2222 8.36111 13.2222H9.44444V18.6389C9.44444 18.7347 9.48249 18.8265 9.55021 18.8942C9.61793 18.962 9.70978 19 9.80556 19H11.6111C11.7069 19 11.7987 18.962 11.8665 18.8942C11.9342 18.8265 11.9722 18.7347 11.9722 18.6389V13.2222H14.2328C14.3079 13.2217 14.3809 13.1977 14.4418 13.1537C14.5026 13.1097 14.5482 13.0478 14.5722 12.9767L15.1067 11.3878C15.1194 11.3493 15.1227 11.3084 15.1163 11.2684C15.11 11.2284 15.0941 11.1906 15.07 11.158C15.0459 11.1255 15.0144 11.0992 14.978 11.0813C14.9417 11.0635 14.9016 11.0547 14.8611 11.0556H11.9722V8.88889C11.9722 8.69734 12.0483 8.51364 12.1838 8.3782C12.3192 8.24276 12.5029 8.16667 12.6944 8.16667Z" fill="#666666"/>
</svg>
