<svg width="25" height="24" viewBox="0 0 25 24" fill="none" xmlns="http://www.w3.org/2000/svg">
<path fill-rule="evenodd" clip-rule="evenodd" d="M25 12.3103C24.998 14.891 24.1713 17.4057 22.6369 19.4985C21.1025 21.5913 18.938 23.1561 16.45 23.9716C16.3557 24.0002 16.2561 24.0073 16.1587 23.9924C16.0612 23.9775 15.9685 23.9409 15.8875 23.8855C15.8066 23.8276 15.7407 23.7518 15.6951 23.6642C15.6495 23.5766 15.6255 23.4796 15.625 23.3812V20.0968C15.652 19.2122 15.4361 18.3368 15 17.5628C14.9677 17.5133 14.9505 17.4556 14.9505 17.3968C14.9505 17.3379 14.9677 17.2803 15 17.2307C15.025 17.1847 15.0607 17.1451 15.1041 17.1152C15.1475 17.0853 15.1975 17.0658 15.25 17.0585C18.3 16.751 20 15.5578 20 12.3103C20.0735 10.794 19.5394 9.30993 18.5125 8.17719C18.6623 7.69869 18.7422 7.20169 18.75 6.70107C18.7446 6.25223 18.6816 5.80586 18.5625 5.37256C18.5245 5.23279 18.4366 5.11113 18.315 5.02983C18.1933 4.94853 18.0461 4.913 17.9 4.92973C16.7547 5.08971 15.6886 5.59708 14.85 6.38124C13.2977 6.08609 11.7023 6.08609 10.15 6.38124C9.31144 5.59708 8.24531 5.08971 7.1 4.92973C6.95395 4.913 6.80665 4.94853 6.68501 5.02983C6.56338 5.11113 6.47552 5.23279 6.4375 5.37256C6.31837 5.80586 6.25537 6.25223 6.25 6.70107C6.25778 7.20169 6.33774 7.69869 6.4875 8.17719C5.4606 9.30993 4.92648 10.794 5 12.3103C5 15.73 6.8875 16.874 10.35 17.1569C9.92018 17.7112 9.62513 18.355 9.4875 19.0389C9.4875 19.0389 9.4875 19.125 9.4875 19.1866C9.48148 19.2438 9.48148 19.3015 9.4875 19.3588C9.46247 19.5448 9.36516 19.7141 9.21599 19.8311C9.06682 19.9481 8.8774 20.0036 8.6875 19.9861C8.49932 19.9774 8.31557 19.9269 8.15 19.8385C7.46901 19.4303 6.86785 18.9054 6.375 18.2886C6.06099 17.9382 5.72712 17.6055 5.375 17.2922C5.15126 17.1016 4.90336 16.9404 4.6375 16.8125C4.54589 16.7618 4.44258 16.7352 4.3375 16.7352C4.23242 16.7352 4.12911 16.7618 4.0375 16.8125C3.94948 16.868 3.87704 16.9445 3.82681 17.0347C3.77659 17.125 3.75018 17.2262 3.75 17.3291V17.4029C3.75018 17.5058 3.77659 17.607 3.82681 17.6973C3.87704 17.7876 3.94948 17.864 4.0375 17.9196C4.48621 18.2892 4.87413 18.7249 5.1875 19.2112C5.71673 20.0272 6.38979 20.7437 7.175 21.3269C7.69235 21.6682 8.30217 21.8483 8.925 21.8436H9.375V23.3812C9.37452 23.4796 9.35051 23.5766 9.30491 23.6642C9.25931 23.7518 9.19339 23.8276 9.1125 23.8855C9.03152 23.9409 8.93879 23.9775 8.84134 23.9924C8.74388 24.0073 8.64425 24.0002 8.55 23.9716C6.36617 23.2558 4.42557 21.9606 2.94214 20.2286C1.45871 18.4966 0.490055 16.3952 0.142949 14.1559C-0.204156 11.9167 0.0837704 9.62665 0.974989 7.5382C1.86621 5.44975 3.32611 3.64401 5.19376 2.32004C7.06141 0.996074 9.26428 0.205293 11.5595 0.0348701C13.8548 -0.135552 16.1533 0.321002 18.2017 1.35421C20.2501 2.38741 21.9688 3.95714 23.1683 5.89035C24.3679 7.82356 25.0017 10.0452 25 12.3103Z" fill="#666666"/>
</svg>
