<svg width="24" height="24" viewBox="0 0 24 24" fill="none" xmlns="http://www.w3.org/2000/svg">
<path fill-rule="evenodd" clip-rule="evenodd" d="M0 12C0 5.37258 5.37258 0 12 0C18.6274 0 24 5.37258 24 12C24 18.6274 18.6274 24 12 24C5.37258 24 0 18.6274 0 12ZM8.47923 9.93945H5.75977V18.1103H8.47923V9.93945ZM8.65899 7.41135C8.64134 6.6102 8.06844 6 7.13813 6C6.20781 6 5.59961 6.6102 5.59961 7.41135C5.59961 8.1959 6.18984 8.82367 7.10282 8.82367H7.1202C8.06844 8.82367 8.65899 8.1959 8.65899 7.41135ZM18.2865 13.4239C18.2865 10.9142 16.9449 9.74609 15.1554 9.74609C13.7115 9.74609 13.0651 10.5392 12.7042 11.0955V9.93818H9.98438C10.0202 10.7049 9.98438 18.109 9.98438 18.109H12.7042V13.5458C12.7042 13.3016 12.7218 13.058 12.7937 12.8831C12.9903 12.3953 13.4378 11.8902 14.1891 11.8902C15.1735 11.8902 15.5671 12.6394 15.5671 13.7374V18.1088H18.2864L18.2865 13.4239Z" fill="#666666"/>
</svg>
