<svg width="25" height="24" viewBox="0 0 25 24" fill="none" xmlns="http://www.w3.org/2000/svg">
<path fill-rule="evenodd" clip-rule="evenodd" d="M12.7266 24C19.354 24 24.7266 18.6274 24.7266 12C24.7266 5.37258 19.354 0 12.7266 0C6.09915 0 0.726562 5.37258 0.726562 12C0.726562 18.6274 6.09915 24 12.7266 24ZM18.5069 9.75587C18.9667 9.43793 19.3721 9.04782 19.7076 8.6006C19.7166 8.58733 19.7226 8.57225 19.7251 8.55642C19.7277 8.54059 19.7268 8.52438 19.7225 8.50894C19.7182 8.49349 19.7105 8.47917 19.7001 8.46698C19.6897 8.45479 19.6767 8.44502 19.6621 8.43835C19.6449 8.42663 19.6245 8.42036 19.6037 8.42036C19.5829 8.42036 19.5625 8.42663 19.5453 8.43835C19.1267 8.59387 18.6909 8.69846 18.2472 8.74988C18.7538 8.44664 19.1532 7.99286 19.3895 7.45183C19.4005 7.43431 19.4063 7.41407 19.4063 7.39342C19.4063 7.37277 19.4005 7.35253 19.3895 7.33501C19.372 7.32407 19.3518 7.31828 19.3311 7.31828C19.3105 7.31828 19.2902 7.32407 19.2727 7.33501C18.7847 7.58928 18.2621 7.77077 17.7215 7.8737C17.3338 7.46835 16.8343 7.18739 16.2866 7.0665C15.7388 6.94561 15.1675 6.99024 14.6452 7.19472C14.1228 7.39921 13.673 7.75432 13.3529 8.21495C13.0328 8.67559 12.8569 9.22097 12.8474 9.78183C12.8459 10.0006 12.8721 10.2187 12.9253 10.4309C10.8482 10.3306 8.89124 9.42777 7.46697 7.91264C7.42636 7.86754 7.37475 7.83375 7.31717 7.81458C7.25958 7.79542 7.19801 7.79153 7.13848 7.80331C7.07895 7.81509 7.02349 7.84212 6.97754 7.88176C6.9316 7.9214 6.89673 7.9723 6.87635 8.02946C6.68111 8.6114 6.68412 9.24163 6.88491 9.82168C7.08569 10.4017 7.47295 10.8989 7.98619 11.2356C7.63291 11.2326 7.28397 11.1575 6.96073 11.015C6.93405 11.0037 6.90492 10.9996 6.87617 11.0029C6.84741 11.0061 6.81998 11.0168 6.79651 11.0337C6.77304 11.0507 6.75433 11.0734 6.74217 11.0996C6.73001 11.1259 6.72482 11.1549 6.72708 11.1837C6.79021 11.7799 7.04108 12.3407 7.44352 12.7851C7.84596 13.2296 8.37915 13.5347 8.96621 13.6565C8.64625 13.7498 8.31132 13.7807 7.97969 13.7474C7.95084 13.7451 7.92188 13.7503 7.89561 13.7625C7.86935 13.7746 7.84665 13.7933 7.8297 13.8168C7.81275 13.8403 7.80212 13.8677 7.79884 13.8964C7.79556 13.9252 7.79973 13.9543 7.81095 13.981C8.03234 14.4678 8.38684 14.8821 8.83355 15.1761C9.28026 15.47 9.80099 15.6317 10.3357 15.6425C9.38064 16.3792 8.21815 16.797 7.01265 16.8367C6.9679 16.8367 6.92497 16.8545 6.89333 16.8861C6.86168 16.9178 6.8439 16.9607 6.8439 17.0055V17.0769C6.84379 17.1085 6.85295 17.1395 6.87025 17.1661C6.88755 17.1926 6.91223 17.2135 6.94126 17.2261C8.04139 17.7681 9.25206 18.048 10.4784 18.0439C11.5286 18.0585 12.5712 17.8641 13.5455 17.4719C14.5198 17.0797 15.4063 16.4977 16.1535 15.7596C16.9006 15.0215 17.4935 14.1421 17.8975 13.1727C18.3015 12.2032 18.5087 11.1631 18.5069 10.1128V9.75587Z" fill="#666666"/>
</svg>
